<svg xmlns:rdf="http://www.w3.org/1999/02/22-rdf-syntax-ns#" xmlns="http://www.w3.org/2000/svg" height="100%" width="100%" version="1.1" xmlns:cc="http://creativecommons.org/ns#" xmlns:dc="http://purl.org/dc/elements/1.1/" viewBox="0 0 30 30">
<metadata>
<rdf:RDF>
<cc:Work rdf:about="">
<dc:format>image/svg+xml</dc:format>
<dc:type rdf:resource="http://purl.org/dc/dcmitype/StillImage"/>
<dc:title/>
</cc:Work>
</rdf:RDF>
</metadata>
<g transform="translate(0,-1022.3622)">
<path d="m3.56,1040c0.568-1.74,2.49-2.48,4.16-2.71,2.57-0.358,4.93,0.946,7.21,1.91,1.84,0.69,3.7,1.51,5.69,1.56,1.17-0.201,1.46-1.72,2.65-1.89,1.4-0.129,2.9,0.803,3.26,2.19-0.597,2.01-2.56,3.28-4.49,3.8-2.52,0.551-4.92-0.655-7.21-1.54-1.84-0.728-3.71-1.52-5.69-1.73-1.14,0.126-1.76,1.43-2.96,1.39-1.26,0.182-2.79-0.717-2.72-2.11-0.006-0.298,0.0109-0.599,0.0944-0.887z" fill="#666"/>
</g>
</svg>
