<!-- Created with Inkscape (http://www.inkscape.org/) -->
<svg xmlns:rdf="http://www.w3.org/1999/02/22-rdf-syntax-ns#" xmlns="http://www.w3.org/2000/svg" height="100%" width="100%" version="1.1" xmlns:cc="http://creativecommons.org/ns#" xmlns:dc="http://purl.org/dc/elements/1.1/" viewBox="0 0 30 30">
<metadata>
<rdf:RDF>
<cc:Work rdf:about="">
<dc:format>image/svg+xml</dc:format>
<dc:type rdf:resource="http://purl.org/dc/dcmitype/StillImage"/>
<dc:title/>
</cc:Work>
</rdf:RDF>
</metadata>
<g transform="translate(0,-1022.3622)">
<path style="baseline-shift:baseline;block-progression:tb;color:#000000;direction:ltr;text-indent:0;text-align:start;enable-background:accumulate;text-transform:none;" fill="#666" d="m13,1030c-2.13,0.167-3.98,1.27-5.31,2.72-1.78,1.93-2.73,4.56-2.84,7.31-0.232,5.68,4.56,11,10.4,10.2,2.98-0.419,5.41-1.35,7.16-3.09,1.74-1.74,2.58-4.18,2.69-6.94,0.111-2.83-1.03-5.42-2.97-7.06-2.83-2.4-5.82-3.38-9.12-3.12zm1.8,0c1.84,0.217,3.55,0.995,4.69,2.06,1.14,1.07,1.75,2.35,1.69,4-0.0829,2.11-0.589,3.37-1.5,4.28-0.911,0.911-2.44,1.59-4.91,1.94-3.04,0.428-5.98-2.78-5.84-6.06,0.0789-1.93,0.766-3.65,1.78-4.75,1.02-1.1,2.25-1.69,4.09-1.47z"/>
</g>
</svg>
