<!-- Created with Inkscape (http://www.inkscape.org/) -->
<svg xmlns:rdf="http://www.w3.org/1999/02/22-rdf-syntax-ns#" xmlns="http://www.w3.org/2000/svg" viewBox="0 0 220 280" height="100%" width="100%" version="1.1" xmlns:cc="http://creativecommons.org/ns#" xmlns:dc="http://purl.org/dc/elements/1.1/">
<metadata>
<rdf:RDF>
<cc:Work rdf:about="">
<dc:format>image/svg+xml</dc:format>
<dc:type rdf:resource="http://purl.org/dc/dcmitype/StillImage"/>
<dc:title/>
</cc:Work>
</rdf:RDF>
</metadata>
<path d="m209.34,266.47c-22.704,8.9999-43.712,13.5-63.023,13.5-33.665,0-63.806-10.761-90.424-32.282-33.933-27.52-50.896-63.39-50.896-107.6,0-44.352,16.963-80.286,50.888-107.81,26.619-21.521,56.952-32.282,91.012-32.282,18.528,0.00027,39.34,4.5002,62.436,13.5v83.151c-6.53-7.957-13.18-13.957-19.97-18-12.396-7.4345-25.705-11.152-39.928-11.152-18.007,0.00021-33.665,5.4132-46.974,16.239-16.832,13.696-25.248,32.478-25.248,56.347-0.0001,23.739,8.416,42.456,25.248,56.151,13.309,10.826,28.967,16.239,46.974,16.239,14.222,0.00006,27.532-3.7173,39.928-11.152,6.6544-3.9129,13.309-9.9128,19.964-18z" fill="#025"/>
<path d="m5.2819,130.26c-0.055316,0.93607-0.085981,1.8733-0.12526,2.8173,0.038781-0.93853,0.070047-1.8834,0.12526-2.8173z" fill="#025"/>
<path d="m77.277,136.48c-0.04359,1.1834-0.06263,2.3877-0.06263,3.5999-0.00001-1.2166,0.01894-2.4097,0.06263-3.5999z" fill="#025"/>
<path d="m77.214,140.08c0,1.3104,0.04089,2.6014,0.0939,3.8817-0.05161-1.2834-0.094-2.5675-0.0939-3.8817z" fill="#025"/>
<path d="m7.0356,165.57c0.21735,1.3117,0.46799,2.6185,0.72026,3.913-0.25261-1.2943-0.49915-2.6043-0.72026-3.913z" fill="#025"/>
<path d="m7.8811,170.2c0.31321,1.563,0.66905,3.1264,1.0334,4.6643-0.36735-1.546-0.71733-3.0921-1.0334-4.6643z" fill="#025"/>
<path d="m8.9146,174.86c0.39794,1.6795,0.82498,3.3278,1.2839,4.9773-0.45672-1.6411-0.88734-3.3082-1.2839-4.9773z" fill="#025"/>
<path d="m185.38,274.44c-3.435,0.919-6.8099,1.7218-10.146,2.4104,3.341-0.688,6.7189-1.4932,10.146-2.4104z" fill="#025"/>
<path d="m175.23,276.85c-1.6682,0.3443-3.3312,0.6524-4.9792,0.9391,1.6492-0.2867,3.3084-0.595,4.9792-0.9391z" fill="#025"/>
<path d="m99.449,193.65c0.47838,0.43732,0.97661,0.85562,1.4718,1.2834-0.4983-0.4281-0.98926-0.84597-1.4718-1.2834z" fill="#025"/>
<path d="m115.7,204.82c0.6434,0.32382,1.2893,0.6359,1.9416,0.93911-0.65277-0.30295-1.2977-0.61563-1.9416-0.93911z" fill="#025"/>
<path d="m95.19,270.68c1.0821,0.4178,2.1655,0.8312,3.2568,1.2208-1.0925-0.3889-2.1739-0.8025-3.2568-1.2208z" fill="#025"/>
<path d="m102.49,273.25c10.508,3.3841,21.441,5.5016,32.788,6.3234-1.2286-0.089-2.451-0.2173-3.664-0.3444-0.10398-0.01-0.20925-0.021-0.31316-0.031-2.0344-0.2039-4.0369-0.4643-6.044-0.7513-7.7864-1.1134-15.388-2.8367-22.767-5.1965z" fill="#025"/>
<path d="m135.27,279.57c1.1166,0.081,2.2261,0.163,3.3508,0.2191-1.1198-0.063-2.2377-0.1377-3.3508-0.2191z" fill="#025"/>
<path d="m145.29,0.08106c-3.3847,0.0343-6.71,0.19012-10.021,0.43825v68.18c-0.0448,0.008-0.0805,0.0546-0.12526,0.0626,3.2925-0.58261,6.6735-0.96099,10.146-1.1269v-67.554z" style="color:#000000;enable-background:accumulate;" fill="#64232d" fill-rule="nonzero"/>
<path d="M125.25,1.5836c-10.39,1.4987-20.43,4.1166-30.06,7.826v70.246h12.777c5.4923-3.6828,11.377-6.5132,17.6-8.5146-0.0999,0.0322-0.21345,0.0299-0.31316,0.0626v-69.62z" style="color:#000000;enable-background:accumulate;" fill="#64232d" fill-rule="nonzero"/>
<path d="m5.3132,129.74c-0.21226,3.4025-0.31316,6.8225-0.31316,10.33-0.000002,6.7655,0.39125,13.35,1.19,19.721,0.0002907,0.002,0.062331-0.002,0.062632,0h28.811v-30.052h-29.75z" style="color:#000000;enable-background:accumulate;" fill="#64232d" fill-rule="nonzero"/>
<path d="m55.105,129.74,0,30.052,24.301,0c0.08688,0.36305,0.22016,0.70435,0.31316,1.0643-1.6504-6.4384-2.5053-13.372-2.5053-20.786-0.00002-3.5623,0.1888-6.9946,0.56368-10.33h-22.673z" style="color:#000000;enable-background:accumulate;" fill="#64232d" fill-rule="nonzero"/>
<path d="m80.095,162.36c0.32901,1.1569,0.67949,2.3189,1.0647,3.4434-0.38445-1.1412-0.73621-2.2687-1.0647-3.4434z" style="color:#000000;enable-background:accumulate;" fill="#64232d" fill-rule="nonzero"/>
<path d="m7.8185,169.81c0.67375,3.3995,1.4666,6.7351,2.38,10.017h24.865v-10.017h-27.245z" style="color:#000000;enable-background:accumulate;" fill="#64232d" fill-rule="nonzero"/>
<path d="m55.105,169.81,0,10.017,32.694,0c-1.9938-3.1604-3.7032-6.5178-5.1358-10.017h-27.558z" style="color:#000000;enable-background:accumulate;" fill="#64232d" fill-rule="nonzero"/>
<path d="m95.19,189.41,0,10.455,12.151,0c-1.6613-1.1393-3.2921-2.3354-4.8853-3.6312-2.642-2.1496-5.038-4.4272-7.2653-6.8242z" style="color:#000000;enable-background:accumulate;" fill="#64232d" fill-rule="nonzero"/>
<path d="m95.19,219.91,0,50.775c9.6499,3.7276,19.681,6.2788,30.063,7.7633v-58.538h-30.063z" style="color:#000000;enable-background:accumulate;" fill="#64232d" fill-rule="nonzero"/>
<path d="m135.27,279.56c3.3076,0.2421,6.641,0.4166,10.021,0.4383v-60.103h-10.021v59.665z" style="color:#000000;enable-background:accumulate;" fill="#64232d" fill-rule="nonzero"/>
<path d="m165.34,1.3958,0,67.742c6.9247,1.4512,13.596,3.8628,20.042,7.2625v-70.809c-6.92-1.8631-13.59-3.2696-20.04-4.1952z" style="color:#000000;enable-background:accumulate;" fill="#406baa" fill-rule="nonzero"/>
<path d="M55.105,32.887c-7.538,6.191-14.204,12.813-20.042,19.847v26.921h20.042v-46.768z" style="color:#000000;enable-background:accumulate;" fill="#406baa" fill-rule="nonzero"/>
<path d="m55.105,79.655,0,20.034,33.07,0c2.0558-3.1979,4.3994-6.2182,7.0147-9.0781v-10.957h-40.084z" style="color:#000000;enable-background:accumulate;" fill="#406baa" fill-rule="nonzero"/>
<path d="m55.105,99.69-20.042,0,0,30.052,20.042,0,0-30.052z" style="color:#000000;enable-background:accumulate;" fill="#406baa" fill-rule="nonzero"/>
<path d="m35.063,99.69,0-20.034-17.286,0c-3.0301,6.3929-5.4985,13.108-7.4532,20.034h24.74z" style="color:#000000;enable-background:accumulate;" fill="#406baa" fill-rule="nonzero"/>
<path d="m190.95,79.655c6.2386,4.0098,12.334,9.6292,18.351,16.967v-16.967h-18.351z" style="color:#000000;enable-background:accumulate;" fill="#406baa" fill-rule="nonzero"/>
<path d="m35.063,179.83,0,20.034,20.042,0,0-20.034-20.042,0z" style="color:#000000;enable-background:accumulate;" fill="#406baa" fill-rule="nonzero"/>
<path d="m55.105,199.86,0,20.034,40.084,0,0-20.034-40.084,0z" style="color:#000000;enable-background:accumulate;" fill="#406baa" fill-rule="nonzero"/>
<path d="m55.105,219.9-20.042,0,0,7.3251c5.8377,7.0271,12.504,13.656,20.042,19.847v-27.172z" style="color:#000000;enable-background:accumulate;" fill="#406baa" fill-rule="nonzero"/>
<path d="m35.063,219.9,0-20.034-17.474,0c3.2855,6.9958,7.2021,13.672,11.775,20.034h5.6995z" style="color:#000000;enable-background:accumulate;" fill="#406baa" fill-rule="nonzero"/>
<path d="m191.71,199.86c-0.76826,0.50737-1.5491,0.98824-2.3174,1.44-1.3237,0.79389-2.6633,1.5449-4.0084,2.2539v16.341h23.925v-20.034h-17.599z" style="color:#000000;enable-background:accumulate;" fill="#406baa" fill-rule="nonzero"/>
<path d="m185.38,219.9-20.042,0,0,58.663c6.5228-0.9172,13.172-2.2941,20.042-4.1321v-54.531z" style="color:#000000;enable-background:accumulate;" fill="#406baa" fill-rule="nonzero"/>
<path d="m165.34,219.9,0-9.0781c-5.1805,1.0872-10.466,1.6278-15.908,1.6278-1.3925,0-2.7699-0.0608-4.1337-0.12521v7.5755h20.042z" style="color:#000000;enable-background:accumulate;" fill="#406baa" fill-rule="nonzero"/>
<path d="m95.19,79.655,0,10.956c2.2314-2.4063,4.6173-4.7323,7.2653-6.8868,1.7838-1.4509,3.6434-2.813,5.5116-4.0695h-12.777z" style="color:#000000;enable-background:accumulate;" fill="#7e3645" fill-rule="nonzero"/>
<path d="m35.063,129.74,0,30.052,20.042,0,0-30.052-20.042,0z" style="color:#000000;enable-background:accumulate;" fill="#7e3645" fill-rule="nonzero"/>
<path d="m35.063,169.81,0,10.017,20.042,0,0-10.017-20.042,0z" style="color:#000000;enable-background:accumulate;" fill="#7e3645" fill-rule="nonzero"/>
<path d="m95.19,199.86,0,20.034,30.063,0,0-11.144c1.5545,0.50986,3.1538,0.97131,4.76,1.3774-8.1431-2.0455-15.71-5.4783-22.673-10.268h-12.151z" style="color:#000000;enable-background:accumulate;" fill="#7e3645" fill-rule="nonzero"/>
<path d="m135.27,211.26,0,8.6399,10.021,0,0-7.5755c-3.4325-0.16399-6.7674-0.49504-10.021-1.0643z" style="color:#000000;enable-background:accumulate;" fill="#7e3645" fill-rule="nonzero"/>
<path d="m35.063,79.655,0,20.034,20.042,0,0-20.034-20.042,0z" style="color:#000000;enable-background:accumulate;" fill="#608fd5" fill-rule="nonzero"/>
<path d="m35.063,199.86,0,20.034,20.042,0,0-20.034-20.042,0z" style="color:#000000;enable-background:accumulate;" fill="#608fd5" fill-rule="nonzero"/>
<path d="m185.38,203.56c-6.446,3.3998-13.117,5.8113-20.042,7.2625v9.0781h20.042v-16.341z" style="color:#000000;enable-background:accumulate;" fill="#608fd5" fill-rule="nonzero"/>
<path d="m135.27,0.4567c-3.3743,0.25275-6.7236,0.65185-10.021,1.1269v69.62c3.2295-1.0586,6.5944-1.9001,10.021-2.5043v-68.242z" style="color:#000000;enable-background:accumulate;" fill="#321116" fill-rule="nonzero"/>
<path d="m6.1901,159.79c0.42295,3.4004,0.97953,6.7281,1.6284,10.017h74.845c-1.3051-3.1979-2.4241-6.5375-3.2568-10.017h-73.216z" style="color:#000000;enable-background:accumulate;" fill="#321116" fill-rule="nonzero"/>
<path d="m125.25,208.75,0,69.682c3.3145,0.4737,6.6318,0.8818,10.021,1.1269v-68.305c-3.4308-0.60496-6.7878-1.4439-10.021-2.5043z" style="color:#000000;enable-background:accumulate;" fill="#321116" fill-rule="nonzero"/>
<path opacity="0.2" style="color:#000000;enable-background:accumulate;" d="m146.89-0.00001c-0.70602,0.00001-1.3953,0.022-2.0982,0.0312l-139.79,139.74c-0.0001904,0.10487,0,0.20807,0,0.31303-0.000001,1.5517,0.020844,3.1019,0.062632,4.633l144.71-144.65c-0.96-0.0237-1.93-0.0626-2.88-0.0626zm-7.234,0.15652c-1.7917,0.0823-3.5846,0.20055-5.355,0.34434l-128.96,128.91c-0.11227,1.7419-0.194,3.4895-0.25053,5.259l134.57-134.51zm14.94,0.0939-149.35,149.29c0.089488,1.5697,0.20982,3.1168,0.34447,4.6643l153.63-153.57c-1.56-0.15524-3.1-0.27789-4.63-0.37564zm-25.867,0.8139c-1.9579,0.23378-3.8934,0.50299-5.8247,0.8139l-116.44,116.39c-0.26141,1.8865-0.49766,3.776-0.68895,5.6973l122.95-122.91zm34.98,0.094l-157.65,157.58c0.17438,1.4861,0.37774,2.9488,0.595,4.4138l161.4-161.33c-1.46-0.2371-2.91-0.4674-4.35-0.6574zm8.61,1.4087-164.94,164.87c0.25369,1.4133,0.51946,2.8016,0.81421,4.1947l168.3-168.22c-1.4071-0.30506-2.7788-0.58125-4.165-0.84521zm-55.586,0.46956c-2.1732,0.44972-4.3439,0.92093-6.4824,1.4713l-101.52,101.48c-0.47932,2.0826-0.92881,4.1947-1.3153,6.3234l109.32-109.27zm63.86,1.2834-171.49,171.42c0.32529,1.3334,0.70074,2.63,1.0647,3.9443l75.001-74.973c0.01092-0.021,0.02034-0.0416,0.03127-0.0626,4.1423-7.9391,9.8909-14.919,17.255-20.911,3.5735-2.9067,7.3302-5.418,11.242-7.5442l70.91-70.873c-1.35-0.356-2.68-0.6812-4.01-1.0017zm7.9229,2.0974-65.669,65.644c2.3804-0.87818,4.8058-1.6616,7.2966-2.2852h0.0313l62.193-62.201c-1.289-0.39567-2.5785-0.79362-3.8518-1.1582zm-85.304,0.12522c-2.59,0.8156-5.141,1.6924-7.676,2.6608l-82.705,82.674c-0.85223,2.422-1.636,4.8652-2.3487,7.3564l92.73-92.69zm92.945,2.2539-59.751,59.728c1.88-0.30151,3.7922-0.55346,5.7308-0.71998l57.77-57.755c-1.26-0.4353-2.51-0.8459-3.76-1.2526zm7.4532,2.5669-56.181,56.159c0.67277-0.0154,1.3248-0.0312,2.0042-0.0312,0.99449,0.00001,1.9895,0.0262,2.975,0.0626l54.865-54.844c-1.2272-0.46659-2.4498-0.9052-3.664-1.3461zm-116.75,1.503c-3.491,1.6148-6.917,3.3713-10.303,5.2904l-55.836,55.815c-1.7136,3.1814-3.2954,6.4151-4.7287,9.7355l70.868-70.84zm122.48,2.786-52.235,52.215c1.4904,0.14482,2.9775,0.33308,4.4468,0.56347l47.788-47.77v-5.0086zm0,10.017-43.56,43.544c1.3448,0.29075,2.6817,0.63725,4.0084,1.0017l39.552-39.537v-5.0086zm-146.91,1.597c-2.205,1.602-4.388,3.264-6.545,5.008-10.709,8.688-19.728,18.216-27.057,28.581l33.602-33.589zm146.91,8.42-35.7,35.687c1.2281,0.40934,2.4518,0.87185,3.664,1.3461l32.036-32.024v-5.0086zm0,10.017-28.497,28.486c1.1342,0.50974,2.2622,1.0598,3.3821,1.6278l25.115-25.106v-5.0086zm0,10.017-21.858,21.85c0.63125,0.3568,1.2837,0.71984,1.9103,1.0956,0.41044,0.24461,0.81182,0.52366,1.2213,0.7826l18.727-18.72v-5.0086zm0,10.017-15.721,15.715c0.95189,0.68756,1.8718,1.4254,2.8184,2.1913l12.902-12.897v-5.0086zm0,10.017-10.178,10.174c0.86278,0.77023,1.7408,1.5745,2.5992,2.4104l7.5784-7.5755v-5.0086zm0,10.017-5.1045,5.1025c0.80082,0.84328,1.6143,1.6972,2.4113,2.5982l2.6932-2.6921v-5.0086zm0,10.017-0.40711,0.40695c0.13346,0.16098,0.27376,0.30694,0.40711,0.46956v-0.87651zm-127.96,17.718-70.085,70.058c0.39372,1.2678,0.79053,2.5382,1.2213,3.7878l66.859-66.834c0.56348-2.402,1.2185-4.7444,2.0042-7.0121zm-3.1942,13.21-64.323,64.298c0.45601,1.2012,0.91794,2.4161,1.4092,3.5999l62.256-62.232c0.15668-1.9199,0.38105-3.8186,0.65763-5.666zm-0.90816,10.925-60.502,60.479c0.51578,1.1434,1.0788,2.2541,1.6284,3.3808l58.874-58.851c-0.02255-0.8556-0.06263-1.6978-0.06263-2.5669,0-0.82534,0.04249-1.6285,0.06263-2.4417zm0.21921,9.7981-57.402,57.38c0.5729,1.0904,1.1481,2.1813,1.7537,3.2556l56.149-56.128c-0.19535-1.4775-0.3816-2.985-0.50105-4.5078zm1.19,8.8277-54.991,54.97c0.62584,1.0386,1.253,2.076,1.9103,3.0991l53.957-53.937c-0.33681-1.357-0.61254-2.7319-0.87684-4.1321zm2.0042,8.0138-53.08,53.06c0.6755,0.98881,1.3611,1.9687,2.0668,2.9426l52.265-52.24c-0.45993-1.2268-0.86003-2.4895-1.2526-3.7565zm2.6932,7.3251-51.577,51.557c0.71896,0.9371,1.4756,1.8632,2.2234,2.786l50.982-50.963c-0.57273-1.1122-1.1188-2.231-1.6284-3.3808zm3.4134,6.6051-50.512,50.493c0.76407,0.894,1.5566,1.7806,2.3487,2.6608l50.074-50.055c-0.67493-1.0073-1.2947-2.0563-1.9103-3.0991zm4.0084,6.0103-49.761,49.742c0.8114,0.8575,1.6351,1.6915,2.474,2.5356l49.51-49.491c-0.77245-0.91581-1.5076-1.8364-2.2234-2.786zm118.53,1.7217-91.348,91.313c1.4065,0.2768,2.8072,0.5483,4.2276,0.7826l87.121-87.087v-5.0086zm-113.96,3.7252-49.322,49.304c0.84752,0.8132,1.6941,1.6414,2.5679,2.4417l49.26-49.241c-0.86069-0.82797-1.6983-1.6443-2.5053-2.5043zm5.1358,4.8834-49.26,49.241c0.88764,0.7766,1.8113,1.5211,2.7245,2.2851l49.26-49.241c-0.25624-0.20308-0.52837-0.38774-0.7829-0.59478-0.67186-0.54665-1.2965-1.1278-1.9416-1.6904zm108.82,1.4087-82.768,82.736c1.4848,0.1978,2.9785,0.3799,4.4782,0.5321l78.29-78.26v-5.0086zm-103.25,3.0365-49.385,49.366c0.93707,0.7479,1.904,1.4387,2.8497,2.16l49.51-49.491c-1.0077-0.65082-1.9914-1.3284-2.975-2.0348zm82.267,2.9113c-3.2332,1.8782-6.5393,3.5069-9.8958,4.8834l-68.644,68.618c1.3402,0.3501,2.6863,0.6606,4.0397,0.9705l74.5-74.472zm-76.191,1.033-49.761,49.742c0.9739,0.7087,1.9607,1.3849,2.9437,2.066l50.074-50.055c-1.0953-0.55634-2.1875-1.137-3.2568-1.753zm97.173,3.0365-73.655,73.627c1.5821,0.1101,3.1616,0.1899,4.76,0.2504l68.895-68.868v-5.0086zm-90.503,0.31304-50.512,50.493c1.0147,0.6683,2.0135,1.3326,3.0376,1.9721l51.045-51.025c-1.2033-0.45319-2.3951-0.92134-3.57-1.44zm7.2966,2.7234-51.64,51.62c1.0549,0.6228,2.1295,1.223,3.1942,1.8157l52.329-52.309c-1.314-0.33163-2.6-0.72435-3.8832-1.1269zm44.625,0.46956c-2.1778,0.62989-4.3807,1.1666-6.6076,1.5965l-62.068,62.044c1.268,0.4127,2.5403,0.8141,3.8205,1.1895l64.855-64.83zm-36.64,1.5652-53.174,53.154c1.1006,0.5756,2.1772,1.1777,3.2882,1.7217l54.208-54.187c-1.4544-0.19384-2.9015-0.41582-4.3216-0.68869zm24.113,0.93912c-1.7847,0.19992-3.6025,0.33063-5.4176,0.40695l-58.122,58.1c1.2067,0.4714,2.4144,0.9412,3.6326,1.3774l59.909-59.9zm-15.251,0.21912-55.335,55.314c1.1615,0.5304,2.3348,1.006,3.5074,1.5026l56.619-56.597c-1.6112-0.0306-3.2183-0.10049-4.7913-0.21913zm66.358,3.7878-64.01,63.985h0.97079c1.3618,0,2.755-0.049,4.1337-0.094l58.905-58.882v-5.0086zm0,10.017-53.644,53.624c1.824-0.132,3.6589-0.2929,5.5116-0.5009l48.132-48.114v-5.0086zm0,10.017-42.339,42.323c2.0078-0.3056,4.0349-0.6723,6.0753-1.0643l36.264-36.25v-5.0086zm0,10.017-29.907,29.895c2.2199-0.5148,4.4443-1.0765,6.7016-1.6904l23.205-23.196v-5.0087zm0,10.017-16.128,16.122c2.4558-0.7665,4.9546-1.562,7.4532-2.4417l8.6745-8.6712v-5.0086zm0,10.017-0.65763,0.6574c0.2201-0.087,0.4372-0.1631,0.65763-0.2504v-0.407z" fill-rule="nonzero" fill="#FFF"/>
</svg>
