<?xml version="1.0" encoding="UTF-8" standalone="no"?>
<!-- Created with Inkscape (http://www.inkscape.org/) -->
<svg id="svg2" xmlns:rdf="http://www.w3.org/1999/02/22-rdf-syntax-ns#" xmlns="http://www.w3.org/2000/svg" height="100%" viewBox="0 0 30 30" width="100%" version="1.1" xmlns:cc="http://creativecommons.org/ns#" xmlns:dc="http://purl.org/dc/elements/1.1/">
 <metadata id="metadata4">
  <rdf:RDF>
   <cc:Work rdf:about="">
    <dc:format>image/svg+xml</dc:format>
    <dc:type rdf:resource="http://purl.org/dc/dcmitype/StillImage"/>
    <dc:title/>
   </cc:Work>
  </rdf:RDF>
 </metadata>
 <path id="path3016" style="baseline-shift:baseline;block-progression:tb;color:#000000;direction:ltr;text-indent:0;text-align:start;enable-background:accumulate;text-transform:none;" d="M7.4108,9.9971c2.2685,1.3499,3.1622,2.4679,4.7452,4.5649-2.1187,2.2545-3.6409,3.4416-5.4851,5.8937-1.8766,2.4953,1.3502,4.8292,3.3125,2.25,1.4496-1.9053,2.823-2.9076,4.6101-4.8625,1.7458,2.2904,3.4031,4.1397,6.1978,5.9161,2.5689,1.6328,4.4119-1.7872,2.125-3.375-2.3508-1.6322-3.7538-3.1558-5.4478-5.4473,2.0601-1.9211,3.5048-3.5,5.5103-5.1175,2.1374-1.724-0.06298-5.1888-2.25-3.3125-1.793,1.5379-3.554,3.2429-5.667,5.18-1.68-2.1472-3.182-3.6965-6.0173-5.2841-2.4924-1.3958-4.5453,1.8613-1.6339,3.5932z" fill-rule="nonzero" fill="#333333"/>
</svg>
