<?xml version="1.0" encoding="UTF-8" standalone="no"?>
<!-- Created with Inkscape (http://www.inkscape.org/) -->
<svg id="svg4047" xmlns:rdf="http://www.w3.org/1999/02/22-rdf-syntax-ns#" xmlns="http://www.w3.org/2000/svg" height="128" width="400" version="1.1" xmlns:cc="http://creativecommons.org/ns#" xmlns:dc="http://purl.org/dc/elements/1.1/">
 <metadata id="metadata4052">
  <rdf:RDF>
   <cc:Work rdf:about="">
    <dc:format>image/svg+xml</dc:format>
    <dc:type rdf:resource="http://purl.org/dc/dcmitype/StillImage"/>
    <dc:title/>
   </cc:Work>
  </rdf:RDF>
 </metadata>
 <g id="layer1" transform="matrix(0.45714033,0,0,0.45714033,-0.00267659,-353.07893)">
  <g id="g6085" transform="matrix(1.0021064,0,0,1.0017229,-100.21056,98.359165)">
   <g id="g3096">
    <path id="path4158" fill="#002255" d="m303.91,938.86c-22.656,8.9844-43.62,13.477-62.891,13.477-33.594,0-63.672-10.742-90.234-32.227-33.86-27.47-50.79-63.28-50.79-107.42-0.000016-44.271,16.927-80.143,50.781-107.62,26.562-21.484,56.836-32.226,90.82-32.227,18.489,0.00027,39.258,4.4924,62.305,13.477v83.008c-6.5-7.94-13.14-13.93-19.92-17.97-12.37-7.4217-25.651-11.133-39.844-11.133-17.969,0.00021-33.594,5.4038-46.875,16.211-16.797,13.672-25.195,32.422-25.195,56.25-0.0001,23.698,8.3983,42.383,25.195,56.055,13.281,10.807,28.906,16.211,46.875,16.211,14.193,0.00006,27.474-3.7109,39.844-11.133,6.6404-3.9062,13.281-9.8957,19.922-17.969z"/>
    <path id="path5510" fill="#002255" d="m100.28,802.88c-0.0552,0.93446-0.0858,1.8701-0.125,2.8125,0.0387-0.93692,0.0699-1.8802,0.125-2.8125z"/>
    <path id="path5508" fill="#002255" d="m172.12,809.09c-0.0435,1.1814-0.0625,2.3836-0.0625,3.5938-0.00001-1.2145,0.0189-2.4056,0.0625-3.5938z"/>
    <path id="path5506" fill="#002255" d="m172.06,812.69c0,1.3082,0.0408,2.5969,0.0937,3.875-0.0515-1.2812-0.0938-2.5631-0.0937-3.875z"/>
    <path id="path5504" fill="#002255" d="m102.03,838.12c0.21689,1.3094,0.46701,2.614,0.71875,3.9062-0.25208-1.2921-0.4981-2.5998-0.71875-3.9062z"/>
    <path id="path5502" fill="#002255" d="m102.88,842.75c0.31255,1.5603,0.66764,3.1211,1.0312,4.6562-0.36658-1.5434-0.71582-3.0868-1.0312-4.6562z"/>
    <path id="path5500" fill="#002255" d="m103.91,847.41c0.3971,1.6766,0.82325,3.3221,1.2812,4.9688-0.45576-1.6382-0.88548-3.3025-1.2812-4.9688z"/>
    <path id="path5492" fill="#002255" d="m280,946.81c-3.4277,0.91741-6.7956,1.7188-10.125,2.4062,3.334-0.6868,6.7048-1.4907,10.125-2.4062z"/>
    <path id="path5490" fill="#002255" d="m269.88,949.22c-1.6647,0.34372-3.3242,0.65121-4.9688,0.9375,1.6457-0.28624,3.3015-0.59404,4.9688-0.9375z"/>
    <path id="path5486" fill="#002255" d="m194.25,866.16c0.47737,0.43657,0.97455,0.85415,1.4688,1.2812-0.49725-0.42737-0.98718-0.84452-1.4688-1.2812z"/>
    <path id="path5484" fill="#002255" d="m210.47,877.31c0.64205,0.32327,1.2866,0.63481,1.9375,0.9375-0.6514-0.30243-1.295-0.61457-1.9375-0.9375z"/>
    <path id="path5478" fill="#002255" d="m190,943.06c1.0798,0.41711,2.161,0.82981,3.25,1.2188-1.0902-0.3882-2.1693-0.80113-3.25-1.2188z"/>
    <path id="path5476" fill="#002255" d="m197.28,945.62c10.486,3.3783,21.395,5.4922,32.719,6.3125-1.226-0.0887-2.4459-0.21692-3.6562-0.34375-0.10376-0.0102-0.20881-0.0208-0.3125-0.0312-2.0302-0.20356-4.0284-0.46351-6.0312-0.75-7.7701-1.1114-15.355-2.8318-22.719-5.1875z"/>
    <path id="path4158-7" fill="#002255" d="m230,951.94c1.1143,0.0807,2.2214,0.1628,3.3438,0.21875-1.1174-0.0628-2.233-0.13743-3.3438-0.21875z"/>
    <path id="path4161" fill="#333333" d="m349.65,939.97-25.625,0,0-117.34,25.625,0z"/>
    <path id="path4163" fill="#333333" d="m448.86,939.97-25.625,0,0-8.0469c-2.448,3.0729-4.9219,5.3125-7.4219,6.7187-4.3751,2.4479-9.349,3.6719-14.922,3.6719-9.0105,0-17.031-3.099-24.062-9.2969-8.3854-7.3958-12.578-17.187-12.578-29.375-0.00002-12.396,4.2969-22.292,12.891-29.688,6.8229-5.8853,14.661-8.828,23.516-8.8281,5.1562,0.00008,10,1.0938,14.531,3.2812,2.6041,1.2501,5.2864,3.3074,8.0469,6.1719v-7.1094h25.625zm-24.844-36.25c-0.00006-4.5833-1.6146-8.4765-4.8438-11.68-3.2292-3.2031-7.1355-4.8046-11.719-4.8047-5.1042,0.00004-9.2969,1.9271-12.578,5.7812-2.6563,3.125-3.9844,6.6927-3.9844,10.703-0.00004,4.0105,1.3281,7.5782,3.9844,10.703,3.2291,3.8542,7.4218,5.7813,12.578,5.7812,4.6354,0.00002,8.5546-1.5885,11.758-4.7656,3.2031-3.1771,4.8046-7.0833,4.8047-11.719z"/>
    <path id="path4165" fill="#333333" d="m543,939.97-25.625,0,0-36.719c-0.00006-6.4062-0.72924-10.651-2.1875-12.734-2.1355-3.0729-5.3386-4.6093-9.6094-4.6094-3.9063,0.00006-7.1875,1.3282-9.8438,3.9844-2.3959,2.3959-3.5938,6.1459-3.5937,11.25v38.828h-25.625v-72.5h25.625v9.1406c2.9687-3.4374,5.7031-5.8593,8.2031-7.2656,4.0625-2.2916,9.1406-3.4374,15.234-3.4375,7.8124,0.00008,14.167,2.1095,19.062,6.3281,5.5728,4.7917,8.3593,11.979,8.3594,21.562z"/>
    <path id="path4167" fill="#333333" d="m587.77,839.58c-0.00004,4.0626-1.3933,7.4871-4.1797,10.273-2.7865,2.7865-6.211,4.1798-10.273,4.1797-4.0104,0.0001-7.4089-1.4062-10.195-4.2187-2.7865-2.8124-4.1797-6.2239-4.1797-10.234-0.00002-4.0103,1.3932-7.4087,4.1797-10.195,2.7864-2.7863,6.1849-4.1796,10.195-4.1797,4.0104,0.00012,7.4218,1.3933,10.234,4.1797,2.8125,2.7866,4.2187,6.185,4.2188,10.195zm-1.6406,100.39-25.625,0,0-72.5,25.625,0z"/>
    <path id="path4169" fill="#333333" d="m726.36,939.97-25.625,0,0-35.859c-0.0001-6.25-0.65114-10.521-1.9531-12.812-1.9272-3.3854-4.8178-5.0781-8.6719-5.0781-4.2709,0.00006-7.5522,1.849-9.8437,5.5469-1.6147,2.6042-2.422,6.7188-2.4219,12.344v35.859h-25.625v-35.859c-0.00006-6.25-0.52088-10.312-1.5625-12.188-2.0834-3.75-5.2865-5.625-9.6094-5.625-4.0104,0.00004-7.1354,1.6146-9.375,4.8437-0.83336,1.1459-1.4323,2.7214-1.7969,4.7266-0.36462,2.0053-0.54692,4.7526-0.54688,8.2422v35.859h-25.625v-72.5h25.625v8.9063c3.0208-2.9166,5.7812-5.052,8.2812-6.4063,4.5312-2.4478,9.5833-3.6718,15.156-3.6719,7.1354,0.00006,13.073,1.849,17.812,5.5469,2.3958,1.8751,4.6874,4.5313,6.875,7.9688,1.9791-3.2291,4.1926-5.7812,6.6406-7.6563,5.1562-3.9583,11.042-5.9374,17.656-5.9375,5.4165,0.00008,10.234,1.3022,14.453,3.9063,4.5311,2.8646,7.4999,6.7448,8.9062,11.641,0.83322,2.9688,1.2499,6.6667,1.25,11.094z"/>
    <path id="path4171" fill="#333333" d="m825.74,939.97-25.625,0,0-8.0469c-2.448,3.0729-4.9219,5.3125-7.4219,6.7187-4.3751,2.4479-9.349,3.6719-14.922,3.6719-9.0105,0-17.031-3.099-24.062-9.2969-8.3854-7.3958-12.578-17.187-12.578-29.375-0.00002-12.396,4.2969-22.292,12.891-29.688,6.8229-5.8853,14.661-8.828,23.516-8.8281,5.1562,0.00008,10,1.0938,14.531,3.2812,2.6041,1.2501,5.2864,3.3074,8.0469,6.1719v-7.1094h25.625zm-24.844-36.25c-0.00006-4.5833-1.6146-8.4765-4.8438-11.68-3.2292-3.2031-7.1355-4.8046-11.719-4.8047-5.1042,0.00004-9.2969,1.9271-12.578,5.7812-2.6563,3.125-3.9844,6.6927-3.9844,10.703-0.00004,4.0105,1.3281,7.5782,3.9844,10.703,3.2291,3.8542,7.4218,5.7813,12.578,5.7812,4.6354,0.00002,8.5546-1.5885,11.758-4.7656,3.2031-3.1771,4.8046-7.0833,4.8047-11.719z"/>
    <path id="path4173" fill="#333333" d="m886.6,888.56-14.609,0,0,51.406-25.625,0,0-51.406-8.4375,0,0-21.094,8.4375,0,0-21.797,25.625,0,0,21.797,14.609,0z"/>
    <path id="path4175" fill="#333333" d="m973.16,908.4-53.906,0c-0.00004,10.885,5.2604,16.328,15.781,16.328,5.3645,0,9.4791-2.2917,12.344-6.875h24.766c-1.9792,6.5625-4.8959,11.641-8.75,15.234-6.9792,6.5104-16.328,9.7656-28.047,9.7656-14.896-0.00002-26.094-4.5313-33.594-13.594-5.625-6.7708-8.4375-15.026-8.4375-24.766-0.00002-11.562,3.5156-20.964,10.547-28.203,7.0312-7.2395,16.953-10.859,29.766-10.859,15.781,0.00006,27.057,5.7292,33.828,17.188,3.802,6.4584,5.703,13.958,5.7031,22.5zm-23.906-14.688c-1.823-8.0208-6.6928-12.031-14.609-12.031-4.375,0.00006-7.9167,1.2761-10.625,3.8281-2.1355,2.0313-3.4896,4.7657-4.0625,8.2031z"/>
    <path id="path5470" style="color:#000000;enable-background:accumulate;" fill-rule="nonzero" fill="#64232d" d="m240,672.92c-3.3776,0.0342-6.6959,0.1898-10,0.4375v68.062c-0.0447,0.008-0.0803,0.0545-0.125,0.0625,3.2856-0.58161,6.6595-0.95934,10.125-1.125v-67.438z"/>
    <path id="path5468" style="color:#000000;enable-background:accumulate;" fill-rule="nonzero" fill="#64232d" d="m220,674.42c-10.374,1.4961-20.389,4.1095-30,7.8125v70.125h12.75c5.4808-3.6765,11.353-6.502,17.562-8.5-0.0997,0.0322-0.213,0.0299-0.3125,0.0625v-69.5z"/>
    <path id="path5466" style="color:#000000;enable-background:accumulate;" fill-rule="nonzero" fill="#64232d" d="m100.31,802.36c-0.21181,3.3966-0.3125,6.8108-0.3125,10.312-0.000002,6.7539,0.39043,13.327,1.1875,19.688,0.00029,0.002,0.0622-0.002,0.0625,0h28.75v-30h-29.688z"/>
    <path id="path5464" style="color:#000000;enable-background:accumulate;" fill-rule="nonzero" fill="#64232d" d="m150,802.36,0,30,24.25,0c0.0867,0.36242,0.2197,0.70314,0.3125,1.0625-1.6469-6.4273-2.5-13.349-2.5-20.75-0.00002-3.5561,0.1884-6.9826,0.5625-10.312h-22.62z"/>
    <path id="path5462" style="color:#000000;enable-background:accumulate;" fill-rule="nonzero" fill="#64232d" d="m174.94,834.92c0.32832,1.1549,0.67806,2.3149,1.0625,3.4375-0.38364-1.1393-0.73466-2.2648-1.0625-3.4375z"/>
    <path id="path5460" style="color:#000000;enable-background:accumulate;" fill-rule="nonzero" fill="#64232d" d="m102.81,842.36c0.67233,3.3936,1.4635,6.7235,2.375,10h24.812v-10h-27.188z"/>
    <path id="path5458" style="color:#000000;enable-background:accumulate;" fill-rule="nonzero" fill="#64232d" d="m150,842.36,0,10,32.625,0c-1.9896-3.1549-3.6954-6.5066-5.125-10h-27.5z"/>
    <path id="path5456" style="color:#000000;enable-background:accumulate;" fill-rule="nonzero" fill="#64232d" d="m190,861.92,0,10.438,12.125,0c-1.6578-1.1373-3.2852-2.3313-4.875-3.625-2.6364-2.1459-5.0274-4.4196-7.25-6.8125z"/>
    <path id="path5454" style="color:#000000;enable-background:accumulate;" fill-rule="nonzero" fill="#64232d" d="m190,892.38,0,50.688c9.6297,3.7213,19.64,6.2681,30,7.75v-58.44h-30z"/>
    <path id="rect4187" style="color:#000000;enable-background:accumulate;" fill-rule="nonzero" fill="#64232d" d="m230,951.92c3.3006,0.24164,6.6271,0.4159,10,0.4375v-60h-10v59.562z"/>
    <path id="path5450" style="color:#000000;enable-background:accumulate;" fill-rule="nonzero" fill="#406baa" d="m260,674.24,0,67.625c6.9101,1.4487,13.568,3.8562,20,7.25v-70.688c-6.9096-1.8594-13.565-3.2635-20-4.1875z"/>
    <path id="path5448" style="color:#000000;enable-background:accumulate;" fill-rule="nonzero" fill="#406baa" d="m150,705.67c-7.5225,6.1798-14.175,12.791-20,19.812v26.875h20v-46.688z"/>
    <path id="path5446" style="color:#000000;enable-background:accumulate;" fill-rule="nonzero" fill="#406baa" d="m150,752.36,0,20,33,0c2.0515-3.1924,4.3902-6.2075,7-9.0625v-10.94h-40z"/>
    <path id="path5444" style="color:#000000;enable-background:accumulate;" fill-rule="nonzero" fill="#406baa" d="m150,772.36-20,0,0,30,20,0,0-30z"/>
    <path id="path5442" style="color:#000000;enable-background:accumulate;" fill-rule="nonzero" fill="#406baa" d="m130,772.36,0-20-17.25,0c-3.0238,6.3819-5.4869,13.086-7.4375,20h24.688z"/>
    <path id="path5440" style="color:#000000;enable-background:accumulate;" fill-rule="nonzero" fill="#406baa" d="m285.56,752.36c6.2254,4.0029,12.308,9.6126,18.312,16.938v-16.94h-18.31z"/>
    <path id="path5438" style="color:#000000;enable-background:accumulate;" fill-rule="nonzero" fill="#406baa" d="m130,852.36,0,20,20,0,0-20-20,0z"/>
    <path id="path5436" style="color:#000000;enable-background:accumulate;" fill-rule="nonzero" fill="#406baa" d="m150,872.36,0,20,40,0,0-20-40,0z"/>
    <path id="path5434" style="color:#000000;enable-background:accumulate;" fill-rule="nonzero" fill="#406baa" d="m150,892.36-20,0,0,7.3125c5.8254,7.015,12.478,13.633,20,19.812v-27.125z"/>
    <path id="path5432" style="color:#000000;enable-background:accumulate;" fill-rule="nonzero" fill="#406baa" d="m130,892.36,0-20-17.438,0c3.2786,6.9837,7.187,13.649,11.75,20h5.6875z"/>
    <path id="path5430" style="color:#000000;enable-background:accumulate;" fill-rule="nonzero" fill="#406baa" d="m286.31,872.36c-0.76664,0.5065-1.5459,0.98654-2.3125,1.4375-1.3209,0.79252-2.6577,1.5423-4,2.25v16.312h23.875v-20h-17.562z"/>
    <path id="path5428" style="color:#000000;enable-background:accumulate;" fill-rule="nonzero" fill="#406baa" d="m280,892.36-20,0,0,58.562c6.509-0.91558,13.145-2.2902,20-4.125v-54.438z"/>
    <path id="rect4746" style="color:#000000;enable-background:accumulate;" fill-rule="nonzero" fill="#406baa" d="m260,892.36,0-9.0625c-5.1696,1.0853-10.444,1.625-15.875,1.625-1.3896,0-2.764-0.0607-4.125-0.125v7.5625h20z"/>
    <path id="path5424" style="color:#000000;enable-background:accumulate;" fill-rule="nonzero" fill="#7e3645" d="m190,752.36,0,10.938c2.2267-2.4021,4.6076-4.7242,7.25-6.875,1.78-1.4484,3.6358-2.8082,5.5-4.0625h-12.75z"/>
    <path id="path5422" style="color:#000000;enable-background:accumulate;" fill-rule="nonzero" fill="#7e3645" d="m130,802.36,0,30,20,0,0-30-20,0z"/>
    <path id="path5420" style="color:#000000;enable-background:accumulate;" fill-rule="nonzero" fill="#7e3645" d="m130,842.36,0,10,20,0,0-10-20,0z"/>
    <path id="path5418" style="color:#000000;enable-background:accumulate;" fill-rule="nonzero" fill="#7e3645" d="m190,872.36,0,20,30,0,0-11.125c1.5513,0.50898,3.1472,0.96964,4.75,1.375-8.126-2.042-15.677-5.4689-22.625-10.25h-12.12z"/>
    <path id="rect4841" style="color:#000000;enable-background:accumulate;" fill-rule="nonzero" fill="#7e3645" d="m230,883.74,0,8.625,10,0,0-7.5625c-3.4253-0.1637-6.7532-0.49418-10-1.0625z"/>
    <path id="path5414" style="color:#000000;enable-background:accumulate;" fill-rule="nonzero" fill="#608fd5" d="m130,752.36,0,20,20,0,0-20-20,0z"/>
    <path id="path5412" style="color:#000000;enable-background:accumulate;" fill-rule="nonzero" fill="#608fd5" d="m130,872.36,0,20,20,0,0-20-20,0z"/>
    <path id="rect4963" style="color:#000000;enable-background:accumulate;" fill-rule="nonzero" fill="#608fd5" d="m280,876.05c-6.4325,3.3939-13.09,5.8013-20,7.25v9.0625h20v-16.312z"/>
    <path id="path5408" style="color:#000000;enable-background:accumulate;" fill-rule="nonzero" fill="#321116" d="m230,673.3c-3.3672,0.25231-6.7095,0.65073-10,1.125v69.5c3.2227-1.0568,6.5805-1.8968,10-2.5v-68.12z"/>
    <path id="path5406" style="color:#000000;enable-background:accumulate;" fill-rule="nonzero" fill="#321116" d="m101.19,832.36c0.42206,3.3945,0.97747,6.7165,1.625,10h74.688c-1.3023-3.1924-2.419-6.5262-3.25-10h-73.062z"/>
    <path id="rect5030" style="color:#000000;enable-background:accumulate;" fill-rule="nonzero" fill="#321116" d="m220,881.24,0,69.562c3.3075,0.47286,6.6178,0.88034,10,1.125v-68.188c-3.4236-0.60392-6.7736-1.4414-10-2.5z"/>
    <path id="path5174" opacity="0.2" style="color:#000000;enable-background:accumulate;" d="m241.59,672.84c-0.70454,0.00001-1.3924,0.022-2.0938,0.0312l-139.5,139.51c-0.00019,0.10469,0,0.20772,0,0.3125-0.000001,1.549,0.0208,3.0965,0.0625,4.625l144.41-144.41c-0.96131-0.0237-1.9257-0.0625-2.875-0.0625zm-7.21,0.16c-1.7879,0.0822-3.577,0.20021-5.3438,0.34375l-128.69,128.69c-0.11203,1.7389-0.19359,3.4835-0.25,5.25l134.28-134.28zm14.906,0.0937-149.04,149.03c0.0893,1.567,0.20938,3.1114,0.34375,4.6562l153.31-153.31c-1.5565-0.15498-3.0976-0.27742-4.625-0.375zm-25.812,0.8125c-1.9538,0.23338-3.8853,0.50213-5.8125,0.8125l-116.19,116.19c-0.26086,1.8832-0.49661,3.7696-0.6875,5.6875l122.68-122.68zm34.9,0.1-157.32,157.31c0.17401,1.4836,0.37695,2.9437,0.59375,4.4062l161.06-161.06c-1.45-0.24-2.9-0.47-4.33-0.66zm8.5938,1.4062-164.59,164.59c0.25316,1.4109,0.51837,2.7968,0.8125,4.1875l167.93-167.94c-1.4041-0.30453-2.773-0.58025-4.1562-0.84375zm-55.47,0.47c-2.1687,0.44895-4.3348,0.91935-6.4688,1.4688l-101.31,101.31c-0.47831,2.079-0.92686,4.1875-1.3125,6.3125l109.09-109.09zm63.719,1.2812-171.12,171.12c0.32461,1.3311,0.69927,2.6254,1.0625,3.9375l74.84-74.84c0.0109-0.021,0.0203-0.0415,0.0312-0.0625,4.1336-7.9254,9.8701-14.893,17.219-20.875,3.566-2.9017,7.3148-5.4086,11.219-7.5312l70.75-70.75c-1.3426-0.3554-2.6754-0.6801-4-1zm7.9062,2.0938-65.531,65.531c2.3754-0.87667,4.7956-1.6587,7.2812-2.2812h0.0312l62.062-62.094c-1.29-0.4-2.57-0.8-3.85-1.16zm-85.13,0.13c-2.5823,0.81418-5.1267,1.6895-7.6562,2.6562l-82.53,82.52c-0.85044,2.4178-1.6326,4.8568-2.3438,7.3438l92.53-92.52zm92.75,2.25-59.625,59.625c1.876-0.301,3.7842-0.55251,5.7188-0.71875l57.66-57.66c-1.2568-0.43417-2.5075-0.84406-3.75-1.25zm7.4375,2.5625-56.062,56.062c0.67135-0.0154,1.322-0.0312,2-0.0312,0.99239,0.00001,1.9853,0.0262,2.9688,0.0625l54.75-54.75c-1.2246-0.46578-2.4446-0.90364-3.6562-1.3438zm-116.5,1.5c-3.4837,1.6121-6.9025,3.3655-10.281,5.2812l-55.72,55.72c-1.71,3.1759-3.2885,6.404-4.7188,9.7188l70.72-70.72zm122.22,2.7812-52.125,52.125c1.4873,0.14457,2.9712,0.3325,4.4375,0.5625l47.688-47.688v-5zm0,10-43.469,43.469c1.342,0.29025,2.6761,0.63615,4,1l39.469-39.469v-5zm-146.6,1.59c-2.201,1.5997-4.379,3.2592-6.5312,5-10.687,8.6729-19.687,18.185-27,28.531l33.53-33.53zm146.59,8.4062-35.625,35.625c1.2255,0.40863,2.4466,0.87035,3.6562,1.3438l31.969-31.969v-5zm0,10-28.438,28.438c1.1318,0.50886,2.2575,1.0579,3.375,1.625l25.062-25.062v-5zm0,10-21.812,21.812c0.62992,0.35618,1.281,0.7186,1.9062,1.0938,0.40958,0.24419,0.81012,0.52276,1.2188,0.78125l18.688-18.688v-5zm0,10-15.688,15.688c0.94989,0.68638,1.8678,1.423,2.8125,2.1875l12.875-12.875v-5zm0,10-10.15,10.15c0.86096,0.76891,1.7372,1.5718,2.5938,2.4062l7.5625-7.5625v-5zm0,10-5.0938,5.0938c0.79914,0.84183,1.611,1.6943,2.4062,2.5938l2.6875-2.6875v-5zm0,10-0.4,0.41c0.13318,0.1607,0.27318,0.30641,0.40625,0.46875v-0.875zm-127.69,17.688-69.938,69.938c0.39289,1.2656,0.78887,2.5339,1.2188,3.7812l66.719-66.719c0.56229-2.3979,1.216-4.7362,2-7zm-3.1875,13.188-64.188,64.188c0.45505,1.1992,0.91601,2.4119,1.4062,3.5938l62.14-62.13c0.15635-1.9166,0.38025-3.812,0.65625-5.6562zm-0.9,10.9-60.37,60.37c0.5147,1.1414,1.0765,2.2502,1.625,3.375l58.75-58.75c-0.0225-0.85413-0.0625-1.6949-0.0625-2.5625,0-0.82392,0.0424-1.6257,0.0625-2.4375zm0.21875,9.7812-57.281,57.281c0.5717,1.0885,1.1457,2.1775,1.75,3.25l56.031-56.031c-0.19494-1.475-0.3808-2.9798-0.5-4.5zm1.1875,8.8125-54.875,54.875c0.62452,1.0368,1.2503,2.0724,1.9062,3.0938l53.844-53.844c-0.3361-1.3546-0.61125-2.7272-0.875-4.125zm2,8-52.969,52.969c0.67408,0.98711,1.3582,1.9653,2.0625,2.9375l52.156-52.156c-0.45896-1.2247-0.85822-2.4852-1.25-3.75zm2.6875,7.3125-51.47,51.47c0.71745,0.93549,1.4724,1.86,2.2188,2.7812l50.875-50.875c-0.57153-1.1103-1.1165-2.2271-1.625-3.375zm3.4062,6.5938-50.406,50.406c0.76246,0.89244,1.5534,1.7776,2.3438,2.6562l49.969-49.969c-0.67351-1.0056-1.292-2.0528-1.9062-3.0938zm4,6-49.656,49.656c0.80969,0.85605,1.6317,1.6887,2.4688,2.5312l49.406-49.406c-0.77083-0.91424-1.5044-1.8333-2.2188-2.7812zm118.28,1.73-91.16,91.15c1.4035,0.27635,2.8013,0.54739,4.2188,0.78125l86.938-86.938v-5zm-113.72,3.7188-49.219,49.219c0.84574,0.81178,1.6906,1.6386,2.5625,2.4375l49.16-49.16c-0.85888-0.82654-1.6948-1.6414-2.5-2.5zm5.125,4.875-49.156,49.156c0.88578,0.77532,1.8075,1.5185,2.7188,2.2812l49.156-49.156c-0.2557-0.20273-0.52726-0.38707-0.78125-0.59375-0.67045-0.54571-1.2938-1.1258-1.9375-1.6875zm108.59,1.4062-82.594,82.594c1.4816,0.1975,2.9722,0.37926,4.4688,0.53125l78.125-78.125v-5zm-103.03,3.03-49.29,49.28c0.9351,0.74655,1.9,1.4362,2.8438,2.1562l49.406-49.406c-1.0056-0.6497-1.9872-1.3261-2.9688-2.0312zm82.094,2.9062c-3.2264,1.875-6.5256,3.5009-9.875,4.875l-68.5,68.5c1.3374,0.34941,2.6807,0.65946,4.0312,0.96875l74.344-74.344zm-76.031,1.0312-49.656,49.656c0.97185,0.70754,1.9566,1.3825,2.9375,2.0625l49.97-49.97c-1.093-0.55538-2.1829-1.1351-3.25-1.75zm96.969,3.0312-73.5,73.5c1.5788,0.10999,3.155,0.18965,4.75,0.25l68.75-68.75v-5zm-90.312,0.3125-50.406,50.406c1.0126,0.66722,2.0092,1.3304,3.0312,1.9688l50.938-50.938c-1.2008-0.45241-2.39-0.91976-3.5625-1.4375zm7.28,2.72-51.54,51.53c1.0526,0.62165,2.125,1.2209,3.1875,1.8125l52.22-52.22c-1.3112-0.33106-2.5945-0.7231-3.875-1.125zm44.531,0.46875c-2.1732,0.62881-4.3715,1.1646-6.5938,1.5938l-61.94,61.94c1.2653,0.41205,2.535,0.81277,3.8125,1.1875l64.719-64.719zm-36.562,1.5625-53.062,53.062c1.0983,0.57459,2.1726,1.1757,3.2812,1.7188l54.094-54.094c-1.4513-0.1935-2.8954-0.4151-4.3125-0.6875zm24.062,0.9375c-1.781,0.19958-3.595,0.33007-5.4062,0.40625l-58,58c1.2042,0.47059,2.4093,0.93952,3.625,1.375l59.781-59.781zm-15.219,0.21875-55.219,55.219c1.1591,0.52946,2.3299,1.0043,3.5,1.5l56.5-56.5c-1.6078-0.0305-3.2116-0.10032-4.7812-0.21875zm66.219,3.7812-63.875,63.875c0.32475,0.002,0.64334,0,0.96875,0,1.359,0,2.7492-0.0491,4.125-0.0937l58.781-58.781v-5zm0,10-53.53,53.53c1.8202-0.13178,3.6512-0.29237,5.5-0.5l48.031-48.031v-5zm0,10-42.25,42.25c2.0035-0.3051,4.0265-0.67111,6.0625-1.0625l36.188-36.188v-5zm0,10-29.844,29.844c2.2153-0.51393,4.435-1.0747,6.6875-1.6875l23.156-23.156v-5zm0,10-16.094,16.094c2.4507-0.76516,4.9442-1.5592,7.4375-2.4375l8.6562-8.6562v-5zm0,10-0.65625,0.65625c0.21964-0.0864,0.43629-0.16278,0.65625-0.25v-0.40625z" fill-rule="nonzero" fill="#ffffff"/>
    <path id="path3049" fill="#b3b3b3" d="m769.18,723.3,0-4.7184c-4.7556,4.0035-9.8361,6.0053-15.241,6.0053-3.924-0.00001-6.9905-0.99439-9.1994-2.9832s-3.3133-4.426-3.3133-7.3116c-0.00001-3.1716,1.4552-5.9403,4.3658-8.306,2.9105-2.3657,7.1594-3.5486,12.747-3.5486,1.5072,0.00002,3.1444,0.0975,4.9115,0.29246,1.7671,0.195,3.6771,0.50046,5.7301,0.91639v-5.3034c-0.00004-1.7938-0.83162-3.3536-2.4948-4.6794s-4.1579-1.9887-7.4842-1.9888c-2.5468,0.00003-6.1199,0.74094-10.72,2.2227-0.8316,0.25999-1.3643,0.38998-1.5982,0.38995-0.41581,0.00003-0.77313-0.15595-1.072-0.46794-0.29886-0.31194-0.44828-0.70188-0.44827-1.1699-0.00001-0.44192,0.12992-0.79287,0.3898-1.0529,0.36381-0.38992,1.8321-0.92286,4.4048-1.5988,4.0539-1.0918,7.1204-1.6378,9.1994-1.6378,4.1319,0.00004,7.3543,1.0204,9.6671,3.0611,2.3128,2.0408,3.4692,4.348,3.4692,6.9217v21.681h4.3658c0.80556,0.00001,1.3773,0.14949,1.7151,0.44845,0.33779,0.29896,0.5067,0.69542,0.50674,1.1894-0.00004,0.46794-0.16895,0.85789-0.50674,1.1698-0.33788,0.31196-0.90958,0.46795-1.7151,0.46795zm0-16.3c-1.5333-0.44193-3.1574-0.76689-4.8726-0.97488-1.7152-0.20796-3.5212-0.31195-5.4183-0.31196-4.7556,0.00001-8.4718,1.0269-11.148,3.0806-2.027,1.5338-3.0405,3.3666-3.0405,5.4984-0.00001,1.9758,0.7731,3.6396,2.3193,4.9914s3.8006,2.0278,6.7631,2.0278c2.8326,0,5.4637-0.56543,7.8935-1.6963s4.931-2.9311,7.5037-5.4008z"/>
    <path id="path3051" fill="#b3b3b3" d="m809.29,674.36,0,45.664,12.864,0c0.80557,0.00001,1.3773,0.14949,1.7151,0.44845,0.33779,0.29896,0.50671,0.69542,0.50675,1.1894-0.00004,0.46794-0.16896,0.85789-0.50675,1.1698-0.33787,0.31196-0.90957,0.46795-1.7151,0.46795h-29.001c-0.77962,0-1.3383-0.15599-1.6762-0.46795-0.33784-0.31196-0.50675-0.70191-0.50675-1.1698,0-0.49394,0.16891-0.8904,0.50675-1.1894,0.33782-0.29896,0.89653-0.44844,1.6762-0.44845h12.864v-42.349h-9.4333c-0.77962,0.00004-1.3448-0.15594-1.6956-0.46794-0.35083-0.31192-0.52624-0.71487-0.52623-1.2089-0.00001-0.46789,0.1689-0.85785,0.50674-1.1698,0.33782-0.31193,0.90953-0.46791,1.7151-0.46795z"/>
    <path id="path3053" fill="#b3b3b3" d="m843.17,689.53,0,5.9663c1.949-2.3657,4.041-4.1465,6.2758-5.3424,2.2349-1.1958,4.8725-1.7938,7.913-1.7938,3.2224,0.00004,6.1978,0.75395,8.9265,2.2617,2.7286,1.5078,4.84,3.6071,6.3343,6.2977,1.4942,2.6907,2.2413,5.5179,2.2414,8.4815-0.00004,4.7054-1.6827,8.7284-5.048,12.069s-7.5038,5.0109-12.415,5.0109c-5.8471,0-10.59-2.3787-14.228-7.1362v19.732h7.952c0.77959-0.00001,1.3383,0.14947,1.6762,0.44844,0.33781,0.29895,0.50672,0.6954,0.50674,1.1894-0.00002,0.46794-0.16893,0.85789-0.50674,1.1699-0.33785,0.31194-0.89657,0.46792-1.6762,0.46794h-15.631c-0.7796-0.00002-1.3383-0.1495-1.6762-0.44845-0.33782-0.29897-0.50674-0.69543-0.50674-1.1894,0-0.49395,0.16892-0.8904,0.50674-1.1894,0.33783-0.29897,0.89656-0.44845,1.6762-0.44844h4.4048v-42.232h-4.4048c-0.7796,0.00003-1.3383-0.15595-1.6762-0.46795-0.33782-0.31193-0.50674-0.71488-0.50674-1.2088,0-0.46791,0.16892-0.85787,0.50674-1.1699,0.33783-0.31193,0.89656-0.46791,1.6762-0.46794zm28.378,15.871c-0.00004-3.7695-1.3708-6.9996-4.1124-9.6903-2.7417-2.6906-6.0875-4.036-10.037-4.036-3.976,0.00003-7.3413,1.3519-10.096,4.0555-2.7546,2.7037-4.1319,5.9273-4.1319,9.6708-0.00001,3.7696,1.3773,7.0062,4.1319,9.7098,2.7546,2.7037,6.1199,4.0555,10.096,4.0555,3.924,0,7.2633-1.3453,10.018-4.036,2.7546-2.6907,4.1319-5.9338,4.1319-9.7293z"/>
    <path id="path3055" fill="#b3b3b3" d="m892.59,674.36,0,20.161c2.079-2.2617,4.0734-3.854,5.9835-4.7769,1.91-0.92285,4.0474-1.3843,6.4123-1.3843,2.5467,0.00004,4.7101,0.44849,6.4902,1.3454,1.7801,0.89692,3.2678,2.2748,4.4633,4.1335,1.1954,1.8588,1.7931,3.8151,1.7931,5.8688v20.317h3.6642c0.80555,0.00001,1.3708,0.14949,1.6956,0.44845,0.32479,0.29896,0.48721,0.69542,0.48726,1.1894-0.00005,0.46794-0.16247,0.85789-0.48726,1.1698-0.32488,0.31196-0.89009,0.46795-1.6956,0.46795h-10.642c-0.80563,0-1.3773-0.15599-1.7151-0.46795-0.33785-0.31196-0.50678-0.70191-0.50675-1.1698-0.00003-0.49394,0.1689-0.8904,0.50675-1.1894,0.3378-0.29896,0.90951-0.44844,1.7151-0.44845h3.6642v-20.083c-0.00003-2.3657-0.8511-4.3415-2.5532-5.9273-1.7022-1.5858-4.0735-2.3787-7.1139-2.3787-2.3908,0.00003-4.4308,0.58496-6.1199,1.7548-1.2214,0.83192-3.2354,2.7947-6.042,5.8883v20.746h3.7031c0.77959,0.00001,1.3383,0.14949,1.6762,0.44845,0.33781,0.29896,0.50673,0.69542,0.50675,1.1894-0.00002,0.46794-0.16894,0.85789-0.50675,1.1698-0.33785,0.31196-0.89657,0.46795-1.6762,0.46795h-10.681c-0.77961,0-1.3383-0.15599-1.6762-0.46795-0.33784-0.31196-0.50675-0.70191-0.50675-1.1698,0-0.49394,0.16891-0.8904,0.50675-1.1894,0.33782-0.29896,0.89654-0.44844,1.6762-0.44845h3.7031v-42.349h-4.4048c-0.77962,0.00004-1.3383-0.15594-1.6762-0.46794-0.33783-0.31192-0.50674-0.71487-0.50674-1.2089,0-0.46789,0.16891-0.85785,0.50674-1.1698,0.33783-0.31193,0.89654-0.46791,1.6762-0.46795z"/>
    <path id="path3057" fill="#b3b3b3" d="m960.65,723.3,0-4.7184c-4.7556,4.0035-9.8361,6.0053-15.241,6.0053-3.924-0.00001-6.9905-0.99439-9.1994-2.9832s-3.3134-4.426-3.3133-7.3116c-0.00001-3.1716,1.4553-5.9403,4.3658-8.306s7.1594-3.5486,12.747-3.5486c1.5072,0.00002,3.1444,0.0975,4.9115,0.29246,1.7671,0.195,3.6771,0.50046,5.7301,0.91639v-5.3034c-0.00004-1.7938-0.83162-3.3536-2.4947-4.6794-1.6632-1.3258-4.1579-1.9887-7.4842-1.9888-2.5467,0.00003-6.1199,0.74094-10.72,2.2227-0.8316,0.25999-1.3643,0.38998-1.5982,0.38995-0.41581,0.00003-0.77312-0.15595-1.072-0.46794-0.29886-0.31194-0.44829-0.70188-0.44828-1.1699-0.00001-0.44192,0.12993-0.79287,0.3898-1.0529,0.36381-0.38992,1.8321-0.92286,4.4048-1.5988,4.0539-1.0918,7.1204-1.6378,9.1994-1.6378,4.1319,0.00004,7.3543,1.0204,9.6671,3.0611,2.3128,2.0408,3.4692,4.348,3.4692,6.9217v21.681h4.3658c0.80555,0.00001,1.3773,0.14949,1.7151,0.44845,0.33778,0.29896,0.5067,0.69542,0.50674,1.1894-0.00004,0.46794-0.16896,0.85789-0.50674,1.1698-0.33788,0.31196-0.90959,0.46795-1.7151,0.46795zm0-16.3c-1.5333-0.44193-3.1574-0.76689-4.8726-0.97488-1.7152-0.20796-3.5213-0.31195-5.4183-0.31196-4.7556,0.00001-8.4718,1.0269-11.148,3.0806-2.027,1.5338-3.0405,3.3666-3.0405,5.4984-0.00001,1.9758,0.7731,3.6396,2.3193,4.9914s3.8006,2.0278,6.7631,2.0278c2.8326,0,5.4637-0.56543,7.8935-1.6963s4.931-2.9311,7.5037-5.4008z"/>
   </g>
  </g>
 </g>
</svg>
