<?xml version="1.0" encoding="UTF-8" standalone="no"?>
<!-- Created with Inkscape (http://www.inkscape.org/) -->
<svg id="svg2" xmlns:rdf="http://www.w3.org/1999/02/22-rdf-syntax-ns#" xmlns="http://www.w3.org/2000/svg" height="100%" width="100%" version="1.1" xmlns:cc="http://creativecommons.org/ns#" xmlns:dc="http://purl.org/dc/elements/1.1/" viewBox="0 0 500 500">
 <metadata id="metadata4">
  <rdf:RDF>
   <cc:Work rdf:about="">
    <dc:format>image/svg+xml</dc:format>
    <dc:type rdf:resource="http://purl.org/dc/dcmitype/StillImage"/>
    <dc:title/>
   </cc:Work>
  </rdf:RDF>
 </metadata>
 <path id="path6" fill="#002255" d="m432.5,475.84c-40.554,16.071-78.079,24.107-112.57,24.107-60.133,0-113.97-19.216-161.52-57.646-60.611-49.142-90.911-113.2-90.911-192.14,0-79.199,30.299-143.37,90.896-192.52,47.54-38.424,101.72-57.64,162.56-57.64,33.1,0.00048214,70.27,8.036,111.53,24.107v148.48c-11.664-14.209-23.542-24.923-35.671-32.143-22.142-13.276-45.914-19.914-71.32-19.914-32.164,0.00037-60.133,9.6664-83.905,28.998-30.065,24.457-45.098,57.996-45.098,100.62-0.00018,42.391,15.033,75.814,45.098,100.27,23.773,19.332,51.741,28.998,83.905,28.998,25.403,0.00011,49.178-6.638,71.32-19.914,11.886-6.9873,23.773-17.701,35.66-32.143z"/>
 <path id="path8" fill="#002255" d="m68.009,232.61c-0.09881,1.6715-0.15358,3.3452-0.22374,5.0309,0.06927-1.6759,0.12512-3.3632,0.22374-5.0309z"/>
 <path id="path10" fill="#002255" d="m196.61,243.72c-0.0779,2.1132-0.11187,4.2637-0.11187,6.4283-0.00002-2.1725,0.0338-4.303,0.11187-6.4283z"/>
 <path id="path12" fill="#002255" d="m196.49,250.15c0,2.34,0.073,4.6453,0.16772,6.9316-0.0922-2.2918-0.1679-4.5848-0.16772-6.9316z"/>
 <path id="path14" fill="#002255" d="m71.141,295.67c0.38823,2.3423,0.83593,4.6758,1.2865,6.9874-0.45121-2.3112-0.89158-4.6505-1.2865-6.9874z"/>
 <path id="path16" fill="#002255" d="m72.652,303.93c0.55946,2.791,1.1951,5.5828,1.8459,8.329-0.65616-2.7607-1.2813-5.5216-1.8459-8.329z"/>
 <path id="path18" fill="#002255" d="m74.498,312.25c0.7108,2.9991,1.4736,5.9424,2.2933,8.888-0.8158-2.9305-1.585-5.9074-2.2933-8.888z"/>
 <path id="path20" fill="#002255" d="m389.7,490.07c-6.1356,1.6411-12.164,3.0746-18.123,4.3042,5.9677-1.2286,12.001-2.6664,18.123-4.3042z"/>
 <path id="path22" fill="#002255" d="m371.57,494.38c-2.9797,0.61481-5.9502,1.165-8.8939,1.677,2.9458-0.51196,5.9095-1.0625,8.8939-1.677z"/>
 <path id="path24" fill="#002255" d="m236.21,345.81c0.85448,0.78092,1.7444,1.5279,2.6289,2.2918-0.89006-0.76446-1.767-1.5106-2.6289-2.2918z"/>
 <path id="path26" fill="#002255" d="m265.24,365.75c1.1492,0.57824,2.303,1.1355,3.4681,1.677-1.166-0.54097-2.318-1.0993-3.4681-1.677z"/>
 <path id="path28" fill="#002255" d="m228.6,483.36c1.9329,0.74607,3.868,1.4843,5.8173,2.18-1.9514-0.69445-3.883-1.433-5.8173-2.18z"/>
 <path id="path30" fill="#002255" d="m241.64,487.95c18.769,6.043,38.298,9.8242,58.566,11.292-2.1945-0.15892-4.378-0.38803-6.5447-0.61499-0.18573-0.0179-0.37376-0.0375-0.55937-0.0554-3.6339-0.3641-7.2107-0.8291-10.796-1.3416-13.908-1.9882-27.486-5.0655-40.667-9.2794z"/>
 <path id="path32" fill="#002255" d="m300.19,499.24c1.9945,0.14464,3.9763,0.29107,5.9852,0.39125-2.0002-0.1125-3.997-0.24589-5.9852-0.39125z"/>
 <path id="path34" style="color:#000000;enable-background:accumulate;" d="m318.09,0.15189c-6.0458,0.06125-11.985,0.3395-17.9,0.78258v121.75c-0.08,0.0143-0.14378,0.0975-0.22374,0.11179,5.8811-1.0404,11.92-1.716,18.123-2.0123v-120.64z" fill-rule="nonzero" fill="#64232d"/>
 <path id="path36" style="color:#000000;enable-background:accumulate;" d="M282.3,2.835c-18.56,2.6762-36.5,7.351-53.7,13.975v125.44h22.822c9.8104-6.5764,20.322-11.631,31.437-15.205-0.17844,0.0575-0.38126,0.0534-0.55937,0.11178v-124.32z" fill-rule="nonzero" fill="#64232d"/>
 <path id="path38" style="color:#000000;enable-background:accumulate;" d="m68.065,231.68c-0.37914,6.0758-0.55937,12.183-0.55937,18.446-0.000004,12.081,0.69885,23.839,2.1256,35.216,0.00052,0.004,0.11134-0.004,0.11187,0h51.461v-53.668h-53.14z" fill-rule="nonzero" fill="#64232d"/>
 <path id="path40" style="color:#000000;enable-background:accumulate;" d="m157,231.68,0,53.664,43.407,0c0.15519,0.6483,0.39325,1.2578,0.55937,1.9005-2.948-11.497-4.475-23.878-4.475-37.118-0.00004-6.3612,0.33723-12.49,1.0068-18.446h-40.508z" fill-rule="nonzero" fill="#64232d"/>
 <path id="path42" style="color:#000000;enable-background:accumulate;" d="m201.64,289.93c0.58768,2.0659,1.2137,4.1409,1.9018,6.1489-0.6867-2.0378-1.315-4.0512-1.9018-6.1489z" fill-rule="nonzero" fill="#64232d"/>
 <path id="path44" style="color:#000000;enable-background:accumulate;" d="m72.54,303.24c1.2035,6.0705,2.6196,12.027,4.2512,17.887h44.414v-17.893h-48.67z" fill-rule="nonzero" fill="#64232d"/>
 <path id="path46" style="color:#000000;enable-background:accumulate;" d="m157,303.24,0,17.887,58.398,0c-3.5613-5.6435-6.6147-11.639-9.1736-17.887h-49.224z" fill-rule="nonzero" fill="#64232d"/>
 <path id="path48" style="color:#000000;enable-background:accumulate;" d="m228.6,338.24,0,18.669,21.704,0c-2.9674-2.0344-5.8804-4.1703-8.7262-6.4842-4.7192-3.8385-8.9989-7.9056-12.977-12.186z" fill-rule="nonzero" fill="#64232d"/>
 <path id="path50" style="color:#000000;enable-background:accumulate;" d="m228.6,392.7,0,90.669c17.237,6.6564,35.154,11.212,53.699,13.863v-104.53h-53.697z" fill-rule="nonzero" fill="#64232d"/>
 <path id="path52" style="color:#000000;enable-background:accumulate;" d="m300.19,499.22c5.9081,0.43232,11.862,0.74393,17.9,0.78268v-107.33h-17.9v106.54z" fill-rule="nonzero" fill="#64232d"/>
 <path id="path54" style="color:#000000;enable-background:accumulate;" d="m353.91,2.4996,0,120.97c12.369,2.5914,24.285,6.8978,35.799,12.969v-126.45c-12.37-3.3269-24.28-5.8385-35.8-7.4913z" fill-rule="nonzero" fill="#406baa"/>
 <path id="path56" style="color:#000000;enable-background:accumulate;" d="m157,58.733c-13.464,11.055-25.371,22.88-35.799,35.441v48.073h35.799v-83.517z" fill-rule="nonzero" fill="#406baa"/>
 <path id="path58" style="color:#000000;enable-background:accumulate;" d="m157,142.25,0,35.775,59.07,0c3.6721-5.7105,7.8582-11.104,12.53-16.211v-19.566h-71.598z" fill-rule="nonzero" fill="#406baa"/>
 <path id="path60" style="color:#000000;enable-background:accumulate;" d="m157,178.02-35.799,0,0,53.664,35.799,0,0-53.664z" fill-rule="nonzero" fill="#406baa"/>
 <path id="path62" style="color:#000000;enable-background:accumulate;" d="m121.2,178.02,0-35.775-30.876,0c-5.4124,11.416-9.8215,23.407-13.313,35.775h44.191z" fill-rule="nonzero" fill="#406baa"/>
 <path id="path64" style="color:#000000;enable-background:accumulate;" d="m399.65,142.25c11.143,7.1603,22.031,17.195,32.779,30.298v-30.298h-32.779z" fill-rule="nonzero" fill="#406baa"/>
 <path id="path66" style="color:#000000;enable-background:accumulate;" d="m121.2,321.13,0,35.775,35.799,0,0-35.775-35.799,0z" fill-rule="nonzero" fill="#406baa"/>
 <path id="path68" style="color:#000000;enable-background:accumulate;" d="m157,356.9,0,35.775,71.598,0,0-35.775-71.598,0z" fill-rule="nonzero" fill="#406baa"/>
 <path id="path70" style="color:#000000;enable-background:accumulate;" d="m157,392.68-35.799,0,0,13.08c10.427,12.548,22.335,24.386,35.799,35.441v-48.521z" fill-rule="nonzero" fill="#406baa"/>
 <path id="path72" style="color:#000000;enable-background:accumulate;" d="m121.2,392.68,0-35.775-31.212,0c5.8686,12.492,12.864,24.414,21.033,35.775h10.18z" fill-rule="nonzero" fill="#406baa"/>
 <path id="path74" style="color:#000000;enable-background:accumulate;" d="m401.01,356.9c-1.3723,0.90601-2.767,1.7647-4.1394,2.5714-2.3644,1.4176-4.7572,2.7587-7.1598,4.0248v29.18h42.735v-35.775h-31.435z" fill-rule="nonzero" fill="#406baa"/>
 <path id="path76" style="color:#000000;enable-background:accumulate;" d="m389.7,392.68-35.799,0,0,104.75c11.651-1.6378,23.528-4.0966,35.799-7.3787v-97.376z" fill-rule="nonzero" fill="#406baa"/>
 <path id="path78" style="color:#000000;enable-background:accumulate;" d="m353.91,392.68,0-16.211c-9.2534,1.9414-18.694,2.9068-28.415,2.9068-2.4873,0-4.9476-0.10857-7.3836-0.22359v13.528h35.799z" fill-rule="nonzero" fill="#406baa"/>
 <path id="path80" style="color:#000000;enable-background:accumulate;" d="m228.6,142.25,0,19.564c3.9857-4.2969,8.2474-8.4505,12.977-12.298,3.1862-2.5909,6.5079-5.0232,9.8448-7.2669h-22.822z" fill-rule="nonzero" fill="#7e3645"/>
 <path id="path82" style="color:#000000;enable-background:accumulate;" d="m121.2,231.68,0,53.664,35.799,0,0-53.664-35.799,0z" fill-rule="nonzero" fill="#7e3645"/>
 <path id="path84" style="color:#000000;enable-background:accumulate;" d="m121.2,303.24,0,17.887,35.799,0,0-17.887-35.799,0z" fill-rule="nonzero" fill="#7e3645"/>
 <path id="path86" style="color:#000000;enable-background:accumulate;" d="m228.6,356.9,0,35.775,53.699,0,0-19.9c2.7767,0.91045,5.6333,1.7345,8.5023,2.4596-14.545-3.6526-28.061-9.7826-40.499-18.336h-21.704z" fill-rule="nonzero" fill="#7e3645"/>
 <path id="path88" style="color:#000000;enable-background:accumulate;" d="m300.19,377.25,0,15.428,17.9,0,0-13.528c-6.1312-0.29284-12.088-0.88399-17.9-1.9005z" fill-rule="nonzero" fill="#7e3645"/>
 <path id="path90" style="color:#000000;enable-background:accumulate;" d="m121.2,142.25,0,35.775,35.799,0,0-35.775-35.799,0z" fill-rule="nonzero" fill="#608fd5"/>
 <path id="path92" style="color:#000000;enable-background:accumulate;" d="m121.2,356.9,0,35.775,35.799,0,0-35.775-35.799,0z" fill-rule="nonzero" fill="#608fd5"/>
 <path id="path94" style="color:#000000;enable-background:accumulate;" d="m389.7,363.5c-11.514,6.071-23.43,10.377-35.799,12.969v16.211h35.799v-29.18z" fill-rule="nonzero" fill="#608fd5"/>
 <path id="path96" style="color:#000000;enable-background:accumulate;" d="M300.19,0.82267c-6.02,0.45133-12.01,1.164-17.9,2.0123v124.32c5.7686-1.8903,11.779-3.393,17.9-4.4719v-121.86z" fill-rule="nonzero" fill="#321116"/>
 <path id="path98" style="color:#000000;enable-background:accumulate;" d="m69.631,285.34c0.75548,6.0721,1.7496,12.014,2.9087,17.887h133.69c-2.3312-5.7105-4.3299-11.674-5.8173-17.887h-130.78z" fill-rule="nonzero" fill="#321116"/>
 <path id="path100" style="color:#000000;enable-background:accumulate;" d="m282.3,372.77,0,124.43c5.9204,0.84588,11.846,1.5746,17.9,2.0123v-121.97c-6.1281-1.0803-12.124-2.5784-17.9-4.4719z" fill-rule="nonzero" fill="#321116"/>
 <path id="path102" opacity="0.2" style="color:#000000;enable-background:accumulate;" d="m320.95,0.0071262c-1.2611,0.00001786-2.4923,0.039285-3.7478,0.055714l-249.69,249.54c-0.00034,0.18727,0,0.37155,0,0.55898-0.000002,2.7709,0.03723,5.5391,0.11187,8.2732l258.48-258.3c-1.7148-0.042321-3.4474-0.11178-5.1443-0.11178zm-12.921,0.2795c-3.2003,0.14696-6.4028,0.35812-9.5651,0.61489l-230.35,230.2c-0.20054,3.1105-0.34652,6.2312-0.4475,9.391l240.37-240.2zm26.68,0.16767-266.76,266.59c0.15984,2.803,0.37478,5.5657,0.6153,8.329l274.41-274.23c-2.78-0.27717-5.53-0.49618-8.27-0.67073zm-46.2,1.4534c-3.4972,0.41746-6.9544,0.89819-10.404,1.4534l-207.99,207.84c-0.46693,3.3687-0.88892,6.7428-1.2306,10.174l219.61-219.48zm62.48,0.1678-281.59,281.39c0.31148,2.6537,0.67472,5.2657,1.0628,7.8817l288.29-288.09c-2.6079-0.42339-5.1979-0.83464-7.77-1.1739zm15.38,2.5156-294.62,294.41c0.45314,2.5237,0.92786,5.0028,1.4543,7.4905l300.62-300.39c-2.52-0.5447-4.97-1.0379-7.44-1.5093zm-99.288,0.83849c-3.8818,0.80306-7.7591,1.6445-11.579,2.6273l-181.33,181.21c-0.85616,3.7189-1.659,7.4905-2.3494,11.292l195.27-195.12zm114.07,2.2917-306.32,306.11c0.58104,2.381,1.2517,4.6964,1.9018,7.0433l133.96-133.88c0.0195-0.0375,0.0363-0.0743,0.0559-0.11179,7.399-14.177,17.667-26.641,30.821-37.341,6.383-5.1905,13.093-9.6749,20.081-13.472l126.66-126.56c-2.41-0.6357-4.79-1.2164-7.16-1.7887zm14.15,3.7457-117.3,117.22c4.2519-1.5682,8.5842-2.9671,13.033-4.0807h0.0559l111.09-111.08c-2.3024-0.70655-4.6057-1.4172-6.8801-2.0682zm-152.37,0.2236c-4.6263,1.4564-9.1829,3.0221-13.711,4.7514l-147.73,147.63c-1.5223,4.325-2.9222,8.6878-4.1953,13.136l165.63-165.52zm166.02,4.024-106.73,106.66c3.3581-0.53841,6.7736-0.98831,10.236-1.2857l103.19-103.13c-2.2506-0.77732-4.4834-1.5105-6.7161-2.2368zm13.313,4.5837-100.35,100.28c1.2017-0.0275,2.3664-0.0557,3.5799-0.0557,1.7764,0.00002,3.5536,0.0468,5.314,0.11179l98.01-97.927c-2.192-0.83319-4.3758-1.6164-6.5447-2.4037zm-208.54,2.6839c-6.2356,2.8835-12.355,6.0201-18.403,9.4471l-99.734,99.67c-3.0608,5.681-5.8863,11.455-8.4464,17.385l126.58-126.5zm218.77,4.975-93.302,93.24c2.6622,0.2586,5.3184,0.59478,7.9429,1.0062l85.359-85.303v-8.9439zm0,17.887-77.807,77.757c2.4021,0.51919,4.7901,1.1379,7.1598,1.7887l70.648-70.601v-8.9439zm-262.41,2.8518c-3.9386,2.8607-7.8379,5.8285-11.691,8.9428-19.128,15.514-35.238,32.528-48.329,51.037l60.02-59.98zm262.41,15.036-63.768,63.726c2.1936,0.73096,4.3794,1.5569,6.5447,2.4037l57.223-57.185v-8.9439zm0,17.887-50.902,50.867c2.0259,0.91024,4.0408,1.8925,6.0411,2.9068l44.861-44.832v-8.9439zm0,17.887-39.043,39.018c1.1276,0.63714,2.293,1.2854,3.4122,1.9564,0.73313,0.4368,1.4501,0.9351,2.1815,1.3975l33.46-33.43v-8.9439zm0,17.887-28.081,28.062c1.7003,1.2278,3.3434,2.5453,5.0342,3.913l23.046-23.03v-8.9438zm0,17.887-18.18,18.168c1.5411,1.3754,3.1094,2.8116,4.6427,4.3042l13.537-13.528v-8.9439zm0,17.887-9.1177,9.1115c1.4304,1.5058,2.8835,3.0307,4.3071,4.6396l4.8106-4.8073v-8.9439zm0,17.887-0.72718,0.72669c0.23839,0.28747,0.48899,0.54811,0.72718,0.8385v-1.5652zm-228.55,31.64-125.19,125.1c0.70326,2.2639,1.412,4.5325,2.1815,6.7639l119.43-119.34c1.0065-4.2892,2.1765-8.4721,3.5799-12.522zm-5.7055,23.589-114.89,114.82c0.81453,2.145,1.6396,4.3144,2.5171,6.4283l111.2-111.14c0.27986-3.4284,0.68063-6.8189,1.1747-10.118zm-1.6222,19.509-108.07,108c0.92129,2.0418,1.927,4.0251,2.9087,6.0371l105.16-105.1c-0.0403-1.5278-0.11187-3.0318-0.11187-4.5837,0-1.4738,0.0759-2.908,0.11187-4.3601zm0.39156,17.496-102.53,102.46c1.0233,1.9471,2.0507,3.8951,3.1325,5.8135l100.29-100.23c-0.34894-2.6384-0.68162-5.3303-0.89498-8.0496zm2.1256,15.764-98.225,98.16c1.1179,1.8546,2.2381,3.7071,3.4122,5.5341l96.378-96.315c-0.60161-2.4232-1.0941-4.8784-1.5662-7.3787zm3.5799,14.31-94.812,94.749c1.2066,1.7657,2.4312,3.5155,3.6917,5.2546l93.356-93.285c-0.82153-2.1907-1.5362-4.4455-2.2374-6.708zm4.8106,13.08-92.127,92.065c1.2842,1.6734,2.6357,3.3271,3.9715,4.975l91.064-91.005c-1.023-1.986-1.9984-3.9839-2.9086-6.0371zm6.097,11.795-90.225,90.165c1.3648,1.5964,2.7804,3.1796,4.1953,4.7514l89.442-89.383c-1.2056-1.7987-2.3126-3.6719-3.4122-5.5341zm7.1598,10.733-88.883,88.824c1.4493,1.5312,2.9206,3.0205,4.4191,4.5278l88.435-88.376c-1.3798-1.6354-2.6929-3.2793-3.9714-4.975zm211.72,3.0744-163.17,163.06c2.5123,0.49428,5.0142,0.9791,7.5514,1.3975l155.61-155.51v-8.9439zm-203.56,6.6521-88.099,88.042c1.5138,1.4521,3.026,2.931,4.5868,4.3601l87.989-87.93c-1.5374-1.4785-3.0335-2.9362-4.475-4.4719zm9.1736,8.7203-87.989,87.93c1.5855,1.3868,3.2354,2.7162,4.8665,4.0805l87.989-87.93c-0.4577-0.36264-0.94378-0.69239-1.3984-1.0621-1.2001-0.97615-2.3158-2.0139-3.4681-3.0186zm194.37,2.5155-147.84,147.74c2.6522,0.35322,5.3202,0.67839,7.999,0.95018l139.84-139.74v-8.9438zm-184.43,5.4223-88.212,88.153c1.6738,1.3355,3.4009,2.5691,5.0902,3.8571l88.44-88.37c-1.8-1.1622-3.557-2.3721-5.314-3.6335zm146.95,5.1987c-5.7752,3.3539-11.681,6.2623-17.676,8.7203l-122.6,122.54c2.3939,0.62517,4.7983,1.1796,7.2157,1.733l133.06-132.99zm-136.09,1.8446-88.883,88.824c1.7396,1.2655,3.5022,2.473,5.2581,3.6893l89.442-89.383c-1.9564-0.99346-3.9073-2.0303-5.8173-3.1303zm173.57,5.4223-131.56,131.48c2.826,0.1966,5.6473,0.3391,8.5023,0.44713l123.06-122.97v-8.9438zm-161.66,0.559-90.225,90.165c1.8125,1.1934,3.5965,2.3796,5.4258,3.5216l91.177-91.115c-2.1494-0.80926-4.2782-1.6452-6.3768-2.5714zm13.033,4.8632-92.24,92.178c1.8843,1.1121,3.8037,2.1839,5.7055,3.2423l93.47-93.408c-2.3471-0.59219-4.6441-1.2935-6.9362-2.0123zm79.709,0.83849c-3.89,1.1248-7.8248,2.0832-11.803,2.8509l-110.86,110.81c2.2649,0.73696,4.5375,1.4537,6.8242,2.1241l115.85-115.77zm-65.447,2.795-94.98,94.917c1.9659,1.0278,3.8889,2.103,5.8734,3.0744l96.827-96.762c-2.5979-0.34614-5.1827-0.74253-7.7193-1.2298zm43.071,1.677c-3.1878,0.35699-6.4348,0.5904-9.677,0.72669l-103.8,103.76c2.1554,0.84178,4.3126,1.6807,6.4886,2.4596l107.01-106.96zm-27.241,0.39128-98.84,98.774c2.0747,0.94713,4.1704,1.7964,6.2649,2.6832l101.15-101.04c-2.8779-0.0546-5.7486-0.17945-8.5582-0.3913zm118.53,6.7639-114.34,114.26h1.734c2.4325,0,4.921-0.0875,7.3836-0.16785l105.24-105.13v-8.9438zm0,17.887-95.819,95.756c3.258-0.23571,6.5356-0.52303,9.8448-0.89446l85.974-85.917v-8.9438zm0,17.887-75.626,75.576c3.5863-0.54571,7.2072-1.2005,10.852-1.9005l64.775-64.732v-8.9438zm0,17.887-53.42,53.383c3.9652-0.91928,7.9384-1.9223,11.97-3.0186l41.449-41.421v-8.944zm0,17.887-28.808,28.789c4.3866-1.3687,8.8499-2.7893,13.313-4.3601l15.494-15.484v-8.9438zm0,17.887-1.1747,1.1739c0.39315-0.15536,0.78093-0.29125,1.1747-0.44714v-0.72678z" fill-rule="nonzero" fill="#ffffff"/>
</svg>
