<?xml version="1.0" encoding="UTF-8" standalone="no"?>
<!-- Created with Inkscape (http://www.inkscape.org/) -->
<svg id="svg2" xmlns:rdf="http://www.w3.org/1999/02/22-rdf-syntax-ns#" xmlns="http://www.w3.org/2000/svg" height="100%" width="100%" version="1.1" xmlns:cc="http://creativecommons.org/ns#" xmlns:dc="http://purl.org/dc/elements/1.1/" viewBox="0 0 30 30">
 <metadata id="metadata4">
  <rdf:RDF>
   <cc:Work rdf:about="">
    <dc:format>image/svg+xml</dc:format>
    <dc:type rdf:resource="http://purl.org/dc/dcmitype/StillImage"/>
    <dc:title/>
   </cc:Work>
  </rdf:RDF>
 </metadata>
 <g id="g6" fill="#333333" transform="translate(-0.04665409,-1017.3979)">
  <path id="path8" fill="#333333" d="m20.5,1040c-0.591,0.998-1.91,1.63-3.07,1.71-0.395,0.026-0.974-0.246-1.09-0.625-0.76-2.51-1.08-3.18-1.91-4.5-0.336-0.532-0.993-0.616-1.36-0.426-1.11,0.571-1.89,1.11-3.09,2.42-0.588,0.646-1.55,0.169-1.59-0.603-0.232-4.51-0.405-8.07-0.24-13.8,0.0273-0.954,0.574-1.41,1.72-0.845,5.44,2.71,7.62,4.08,11.7,7.33,0.634,0.505,0.598,1.38-0.222,1.56-1.77,0.394-2.4,0.546-3.78,1.13-0.497,0.209-0.642,0.926-0.356,1.32,0.958,1.31,2.09,2.98,3.41,4.15,0.302,0.268,0.0878,0.858-0.118,1.21z"/>
 </g>
</svg>
