<?xml version="1.0" encoding="UTF-8" standalone="no"?>
<!-- Created with Inkscape (http://www.inkscape.org/) -->
<svg id="svg2" xmlns:rdf="http://www.w3.org/1999/02/22-rdf-syntax-ns#" xmlns="http://www.w3.org/2000/svg" height="26" width="26" version="1.1" xmlns:cc="http://creativecommons.org/ns#" xmlns:dc="http://purl.org/dc/elements/1.1/">
 <metadata id="metadata7">
  <rdf:RDF>
   <cc:Work rdf:about="">
    <dc:format>image/svg+xml</dc:format>
    <dc:type rdf:resource="http://purl.org/dc/dcmitype/StillImage"/>
    <dc:title/>
   </cc:Work>
  </rdf:RDF>
 </metadata>
 <path id="path3003" style="enable-background:accumulate;color:#000000;" fill-rule="nonzero" fill="#333333" d="M18,4c-2.209,0-4,1.7909-4,4,0,0.4264,0.095,0.8334,0.219,1.2188-0.386-0.1236-0.793-0.2188-1.219-0.2188-2.209,0-4,1.791-4,4,0,0.426,0.0952,0.833,0.2188,1.219-0.3854-0.124-0.7924-0.219-1.2188-0.219-2.2091,0-4,1.791-4,4s1.7909,4,4,4c2.209,0,4-1.791,4-4,0-0.426-0.095-0.833-0.219-1.219,0.386,0.124,0.793,0.219,1.219,0.219,2.209,0,4-1.791,4-4,0-0.426-0.095-0.833-0.219-1.219,0.386,0.124,0.793,0.219,1.219,0.219,2.209,0,4-1.791,4-4,0-2.2091-1.791-4-4-4zm0,1c1.657,0,3,1.3431,3,3s-1.343,3-3,3-3-1.3431-3-3,1.343-3,3-3zm-10,10c1.6569,0,3,1.343,3,3s-1.3431,3-3,3-3-1.343-3-3,1.3431-3,3-3z"/>
</svg>
