<?xml version="1.0" encoding="UTF-8" standalone="no"?>
<!-- Created with Inkscape (http://www.inkscape.org/) -->
<svg id="svg2" xmlns:rdf="http://www.w3.org/1999/02/22-rdf-syntax-ns#" xmlns="http://www.w3.org/2000/svg" height="100%" width="100%" version="1.1" xmlns:cc="http://creativecommons.org/ns#" xmlns:dc="http://purl.org/dc/elements/1.1/" viewBox="0 0 30 30">
 <metadata id="metadata4">
  <rdf:RDF>
   <cc:Work rdf:about="">
    <dc:format>image/svg+xml</dc:format>
    <dc:type rdf:resource="http://purl.org/dc/dcmitype/StillImage"/>
    <dc:title/>
   </cc:Work>
  </rdf:RDF>
 </metadata>
 <g id="g6" fill="#333333" transform="translate(-0.01420202,-1026.1168)">
  <path id="path8" fill="#333333" d="m12.3,1050c0.0143,1.46,8.36,1.56,8.25-0.063l-0.142-2.12s1.37-2.68,2.22-6.56l1.04-4.75c0.292-1.34-1.69-2.15-2.23-0.781l-1.55,4.25,0.545-5.97c0.167-1.83-2.41-2.54-2.61-0.562l-0.78,5.79-1.2-6.76c-0.326-1.84-2.82-1.8-2.58,0l0.906,6.87-2.61-5.78c-0.729-1.61-3.11-1.35-2.45,0.653l2.87,8.75c-1.28,0.393-2.4-1.77-3.33-2.59-1.11-0.982-3.19-0.457-1.92,1.18,0.642,0.828,1.04,1.54,1.91,3.07,0.389,0.681,0.517,1.11,0.921,1.78,0.701,1.16,2.74,2.81,2.74,2.81z"/>
 </g>
</svg>
