<?xml version="1.0" encoding="UTF-8" standalone="no"?>
<!-- Created with Inkscape (http://www.inkscape.org/) -->
<svg id="svg2" xmlns:rdf="http://www.w3.org/1999/02/22-rdf-syntax-ns#" xmlns="http://www.w3.org/2000/svg" height="26" width="26" version="1.1" xmlns:cc="http://creativecommons.org/ns#" xmlns:dc="http://purl.org/dc/elements/1.1/">
 <metadata id="metadata7">
  <rdf:RDF>
   <cc:Work rdf:about="">
    <dc:format>image/svg+xml</dc:format>
    <dc:type rdf:resource="http://purl.org/dc/dcmitype/StillImage"/>
    <dc:title/>
   </cc:Work>
  </rdf:RDF>
 </metadata>
 <path id="path3928" fill="#333333" d="M12,5v2.0844c-0.912,0.1531-1.752,0.5131-2.475,1.0281l-1.475-1.475-1.4125,1.4125,1.475,1.475c-0.515,0.723-0.875,1.563-1.0281,2.475h-2.0844v2h2.0844c0.1531,0.912,0.5131,1.752,1.0281,2.475l-1.475,1.475,1.4125,1.412,1.475-1.474c0.723,0.514,1.563,0.874,2.475,1.028v2.084h2v-2.084c0.912-0.154,1.752-0.514,2.475-1.028l1.475,1.474,1.412-1.412-1.474-1.475c0.514-0.723,0.874-1.563,1.028-2.475h2.084v-2h-2.084c-0.154-0.912-0.514-1.752-1.028-2.475l1.474-1.475-1.412-1.4125-1.475,1.475c-0.723-0.515-1.563-0.875-2.475-1.0281v-2.0844h-2zm1,6c1.105,0,2,0.895,2,2s-0.895,2-2,2-2-0.895-2-2,0.895-2,2-2z"/>
</svg>
