<?xml version="1.0" encoding="UTF-8" standalone="no"?>
<!-- Created with Inkscape (http://www.inkscape.org/) -->
<svg id="svg2" xmlns:rdf="http://www.w3.org/1999/02/22-rdf-syntax-ns#" xmlns="http://www.w3.org/2000/svg" height="100%" width="100%" version="1.1" xmlns:cc="http://creativecommons.org/ns#" xmlns:dc="http://purl.org/dc/elements/1.1/" viewBox="0 0 30 30">
 <metadata id="metadata4">
  <rdf:RDF>
   <cc:Work rdf:about="">
    <dc:format>image/svg+xml</dc:format>
    <dc:type rdf:resource="http://purl.org/dc/dcmitype/StillImage"/>
    <dc:title/>
   </cc:Work>
  </rdf:RDF>
 </metadata>
 <g id="g6" fill="#333333" transform="translate(-0.00401458,-1024.4923)">
  <path id="path8" style="direction:ltr;enable-background:accumulate;baseline-shift:baseline;block-progression:tb;text-indent:0;color:#000000;text-transform:none;text-align:start;" fill="#333333" d="m7.06,1030a2,2,0,0,0,-1.78,2.16c0.403,4.97,0.579,9.79,0,14.6a2,2,0,0,0,2.19,2.22c4.84-0.479,9.69-0.287,14.7,0.031a2,2,0,0,0,2.09,-1.72c0.788-5.3,0.477-10.3,0-15.5a2,2,0,0,0,-2.09,-1.81c-4.98,0.316-9.86,0.479-14.7,0a2,2,0,0,0,-0.406,0zm2.31,4.06c3.71,0.228,7.39,0.23,11,0.031,0.299,3.69,0.329,7.26-0.0312,10.8-3.64-0.198-7.3-0.227-11,0,0.277-3.66,0.239-7.26,0-10.8z"/>
 </g>
</svg>
