<?xml version="1.0" encoding="UTF-8" standalone="no"?>
<!-- Created with Inkscape (http://www.inkscape.org/) -->
<svg id="svg2" xmlns:rdf="http://www.w3.org/1999/02/22-rdf-syntax-ns#" xmlns="http://www.w3.org/2000/svg" height="260" width="260" version="1.1" xmlns:cc="http://creativecommons.org/ns#" xmlns:dc="http://purl.org/dc/elements/1.1/">
 <metadata id="metadata7">
  <rdf:RDF>
   <cc:Work rdf:about="">
    <dc:format>image/svg+xml</dc:format>
    <dc:type rdf:resource="http://purl.org/dc/dcmitype/StillImage"/>
    <dc:title/>
   </cc:Work>
  </rdf:RDF>
 </metadata>
 <path id="path3998" fill="#333333" d="m30,40,10-10,30,30,0-20,10,0,0,40-40,0,0-10,20,0z"/>
 <path id="path3998-4" fill="#333333" d="m230,40-10-10-30,30,0-20-10,0,0,40,40,0,0-10-20,0z"/>
 <path id="path3998-8" fill="#333333" d="m30,220,10,10,30-30,0,20,10,0,0-40-40,0,0,10,20,0z"/>
 <path id="path3998-4-8" fill="#333333" d="m230,220-10,10-30-30,0,20-10,0,0-40,40,0,0,10-20,0z"/>
 <path id="rect4092" fill="#333333" d="M90,90v80h80v-80h-80zm10,10h60v60h-60v-60z"/>
</svg>
