<?xml version="1.0" encoding="UTF-8" standalone="no"?>
<!-- Created with Inkscape (http://www.inkscape.org/) -->
<svg id="svg2" xmlns:rdf="http://www.w3.org/1999/02/22-rdf-syntax-ns#" xmlns="http://www.w3.org/2000/svg" height="26" width="26" version="1.1" xmlns:cc="http://creativecommons.org/ns#" xmlns:dc="http://purl.org/dc/elements/1.1/">
 <metadata id="metadata7">
  <rdf:RDF>
   <cc:Work rdf:about="">
    <dc:format>image/svg+xml</dc:format>
    <dc:type rdf:resource="http://purl.org/dc/dcmitype/StillImage"/>
    <dc:title/>
   </cc:Work>
  </rdf:RDF>
 </metadata>
 <path id="path3998" fill="#333333" d="M4,3,3,4,6,7,4,7,4,8,8,8,8,4,7,4,7,6,4,3zm18,0-3,3,0-2-1,0,0,4,4,0,0-1-2,0,3-3-1-1zm-13,6-1,1,0,2,1,0,0,5,2,0,0-8-2,0zm7,0-1,1,0,2,1,0,0,5,2,0,0-8-2,0zm-4,1,0,2,2,0,0-2-2,0zm0,4,0,2,2,0,0-2-2,0zm-8,4,0,1,2,0-3,3,1,1,3-3,0,2,1,0,0-4-4,0zm14,0,0,4,1,0,0-2,3,3,1-1-3-3,2,0,0-1-4,0z"/>
</svg>
